<svg id="Layer_1" data-name="Layer 1" xmlns="http://www.w3.org/2000/svg" xmlns:xlink="http://www.w3.org/1999/xlink" viewBox="0 0 1000 543.89"><defs><style>.cls-1{fill:url(#linear-gradient);}.cls-2{fill:#a7a9ac;}.cls-3{fill:#808285;}.cls-4{fill:#231f20;}.cls-5{fill:#6d6e71;}</style><linearGradient id="linear-gradient" x1="499.04" y1="651.72" x2="499.04" y2="390" gradientUnits="userSpaceOnUse"><stop offset="0" stop-color="#fff" stop-opacity="0"/><stop offset="1"/></linearGradient></defs><path class="cls-1" d="M992.7,390H-1V583.81H6v12.75l39.05-4.35v-2h-2.9v-3.09h3.29v-3.28h4.44v5.6h1.74v-1.74h3.1v-1.16h2v-2.7h.87V569h36.9V558.37h12.23V529.8h6.46V519.61h13.1v35.57h18.15l2.38,3.47h14l6.18-7.21h4.54v-5.36h1.64v-4.74h2.89v-2.88h1.54v-3.2h10.72v2.79h8.45V570h-1.65v2.68h38.22v2.17h3.35v-2.17h7.16V553.52a8.27,8.27,0,0,0,1.61-1.84h11.8v-8.55h19.44V573.5c0,.62.37,1.12.82,1.12s.83-.5.83-1.12V543.13h0V462.89h1.39v97.72l4.74-.1v9.89l19.27-3.75h3.51v6.09h6.58v6.62h2.47v-6.62H338.7v-6.09h8.67v-6.09h8.73c0,4.25,0,7.39,0,8.49,0,4-6.41,50.6-6.41,50.6h-4.92a11.75,11.75,0,0,0-6.78,2.63l3.06,1.88v2.07A5.19,5.19,0,0,1,339.9,628c-5.67,0-8.45,1.34-8.45,1.71v.66l5.89,2v1.18l-.69.51v1.74s11.67,4.49,15.75,5.75,4.21,2.63,4.15,3.19a18.23,18.23,0,0,0-3.37,2.38,21.21,21.21,0,0,0,3.25,1.13,2.15,2.15,0,0,0,2.41,2.16v1.35h.88v-1.35h2.79a5.77,5.77,0,0,0,.14,1.35h4.27a6.36,6.36,0,0,0,.14-1.35h2.78v1.35h.89v-1.35a2.15,2.15,0,0,0,2.41-2.16,21.21,21.21,0,0,0,3.25-1.13A18.65,18.65,0,0,0,373,644.7c-.06-.56.06-1.94,4.14-3.19s15.76-5.75,15.76-5.75V634l-.7-.51v-1.18l5.9-2v-.66c0-.37-2.79-1.71-8.45-1.71a5.19,5.19,0,0,1-1.11-1.76v-2.07l3.06-1.88a11.75,11.75,0,0,0-6.78-2.63h-4.92s-6.42-46.62-6.42-50.6-.38-34.69,1.52-48.15c.22-1.59.55-4.07.94-7.17v69.34h5.72v1.47h10.66v2.13h2.32v2.12H397v-5.72h7.11v-5.25h-3.4V464.08c5.86-.35,11.27-.66,15.83-.89v63.32h5.77l49.25-49.69V466.36c3.62-.76,7.64-1.58,11.72-2.29v73.06h32.21l3.8-2.5V464.27a106.71,106.71,0,0,0,12.77-.85v47h1.61v9h2v29.83H537v-.93h5.93v3.17l10.3,10.3v1.65l-1,1,1.88,1.88,1.87-1.88-1-1v-1.65l10.31-10.3v-3.17h5.92v.93h1.34V539h3.61v3.57H582v4.91h3.5V551h1.76v23.61H589V472.21h1.86v51.1c0,1.55.46,3.09,1.55,3.09v7a38.53,38.53,0,0,0,6.18.77v2.32h2.16V545h9.84l3-3v-2h-2.83v-4.53h8.13v2.37l4.23-2.79V524.14h1.65V471.81c8.16.12,18.82.11,21.76-.63,6.6,3.71,26-.41,29.26-.82s4.12.82,7,3.71,3.71-3.3,9.89-.82l.08,0v6.6h.57v-6.39c5.79,2.18,9.45,1.83,15,1.83,8.24,6.59,12.77-.83,16.48-.42,5.36,5.36,18.55,1.65,20.61,3.3s8.24,6.59,10.71,6.59,11.95-1.64,13.6-.41c3.3,4.54,9.89,4.54,14,5.36s3.71,5.36,8.25,8.65,11.12,3.3,13.18,1.65,7-3.29,9.89-3.71,9.48,1.24,12.37,2.89,49.86,33,58.1,35,14.43,2.06,20.2,0,13.6-1.65,26-7.94S999,488.91,999,488.91V390ZM359.1,619.65h-5.69c1.49-6.11,4.7-34.55,5.5-59.09h.19Zm17.06,0h-5.69V512.17h2.13c-1.11,11.16-2.13,24.88-2.13,37.9C370.47,576.25,374.45,612.64,376.16,619.65Zm-3.32-109.86h-2.37V494.13h4.23C374.2,497.88,373.52,503.32,372.84,509.79Zm3.12-25.4c-.3,2.61-.52,4.45-.63,5.18l-.3,2.19h-4.56V478.67H376Zm0-8.09h-5.49V465.9l5.49-.33Zm167.12,70.92h-5.8v-2.14h5.8Zm27.87,0h-5.8v-2.14H571Z" transform="translate(0.96 -107.82)"/><path class="cls-2" d="M999,387.23v-98.9s-54.92-31.12-67.28-37.4-20.19-5.87-26-7.94-11.95-2.06-20.2,0-55.22,33.39-58.1,35-9.48,3.3-12.37,2.89-7.83-2.06-9.89-3.71-8.65-1.65-13.18,1.65-4.13,7.83-8.25,8.65-10.71.83-14,5.36c-1.65,1.24-11.13-.41-13.6-.41s-8.65,4.94-10.71,6.59-15.25-2.06-20.61,3.3c-3.71.41-8.24-7-16.48-.41-5.77,0-9.48-.42-15.66,2.06s-7-3.71-9.89-.83-3.71,4.12-7,3.71-22.66-4.53-29.26-.82c-4.94-1.24-31.73-.42-31.73-.42s-51.51-2.47-56.46,2.48-12.36,5.05-16.48,6.23-21.12-3.66-33.23,0-47-6.23-51-6.23-24.57,5.05-27,6.23-86.55-5.41-100.56-4.58-18.95,8.24-29.26,10.71-8.65-6.49-22.66-6.13-44.1,40.75-61.41,39.51-28.43-12.36-40.8-7.42-50.68,30.5-69.23,31.32a71.6,71.6,0,0,0-32.14,9.48Z" transform="translate(0.96 -107.82)"/><polygon class="cls-2" points="348.33 102.76 339.66 102.76 339.66 96.67 308.26 96.67 308.26 102.76 299.59 102.76 299.59 108.85 287.25 108.85 287.25 279.41 360.67 279.41 360.67 108.85 348.33 108.85 348.33 102.76"/><rect class="cls-2" x="165.51" y="134.15" width="26.19" height="145.26"/><polygon class="cls-2" points="127.27 149.8 114.17 149.8 114.17 279.41 127.27 279.41 140.36 279.41 153.45 279.41 153.45 114.23 127.27 114.23 127.27 149.8"/><path class="cls-2" d="M245.5,225.55h11.8v8.56h19.44V203.74c0-.63.37-1.13.82-1.13s.83.5.83,1.13v30.37h0V387.23H215V216.43C240.63,216.43,245.5,225.55,245.5,225.55Z" transform="translate(0.96 -107.82)"/><polygon class="cls-2" points="588.22 94.79 588.22 118.4 586.46 118.4 586.46 121.97 582.96 121.97 582.96 126.88 577.15 126.88 577.15 130.45 567.9 130.45 564.33 134.15 564.33 279.41 589.97 279.41 589.97 134.15 589.97 126.88 589.97 121.97 589.97 118.4 589.97 94.79 588.22 94.79"/><polygon class="cls-2" points="95.48 111.04 95.48 100.37 55.78 100.37 55.78 111.04 55.78 279.41 107.71 279.41 107.71 111.04 95.48 111.04"/><polygon class="cls-3" points="729.42 259.96 729.42 222.98 713.97 222.98 713.97 214.97 711.09 214.97 711.09 213.06 716.86 213.06 716.86 211.67 708.75 211.67 708.75 198.94 707.99 198.94 707.99 211.67 699.68 211.67 699.68 206.35 698.92 206.35 698.92 211.67 694.36 211.67 694.36 189.53 693.78 189.53 693.78 211.67 685.76 211.67 685.76 213.06 691.53 213.06 691.53 214.97 688.65 214.97 688.65 222.98 673.21 222.98 673.21 279.41 726.13 279.41 729.42 279.41 739.34 279.41 739.34 259.96 729.42 259.96"/><polygon class="cls-3" points="58.58 106.48 58.58 85.6 57.71 85.6 57.71 82.9 55.68 82.9 55.68 81.74 52.59 81.74 52.59 80 50.84 80 50.84 85.6 46.4 85.6 46.4 82.32 43.11 82.32 43.11 79.22 46.01 79.22 46.01 77.19 6.96 72.84 6.96 85.6 0 85.6 0 279.41 60.75 279.41 60.75 106.48 58.58 106.48"/><polygon class="cls-3" points="85.22 139.61 85.22 136.82 78.32 136.82 78.32 139.61 64.26 139.61 64.26 279.41 114.17 279.41 114.17 139.61 85.22 139.61"/><polygon class="cls-3" points="177.06 130.95 177.06 128.07 174.18 128.07 174.18 123.33 172.53 123.33 172.53 117.97 167.99 117.97 161.81 110.76 147.8 110.76 142.85 117.97 138.32 117.97 138.32 123.33 136.67 123.33 136.67 128.07 133.79 128.07 133.79 130.95 132.24 130.95 132.24 279.41 178.6 279.41 178.6 130.95 177.06 130.95"/><polygon class="cls-3" points="249.8 126.93 244.85 122.09 244.85 96.75 237.69 96.75 237.69 94.58 234.34 94.58 234.34 96.75 196.12 96.75 196.12 99.42 197.77 99.42 197.77 131.36 189.32 131.36 189.32 279.41 255.88 279.41 255.88 126.93 249.8 126.93"/><polygon class="cls-3" points="417.48 147.82 417.48 142.9 423.25 142.9 472.5 192.59 472.5 279.41 417.48 279.41 417.48 147.82"/><polygon class="cls-3" points="484.22 132.28 516.43 132.28 520.23 134.78 520.23 279.41 484.22 279.41 484.22 132.28"/><path class="cls-3" d="M574.58,266.79v-9h-2V228h-1.34v.94h-5.92v-3.18L555,215.42v-1.65l1-1-1.87-1.87-1.88,1.87,1,1v1.65l-10.3,10.3v3.18H537V228h-1.33v29.83h-2v9H532V387.23h44.15V266.79Zm-31.5-34.64h-5.8V230h5.8Zm27.87,0h-5.8V230H571Z" transform="translate(0.96 -107.82)"/><path class="cls-3" d="M590.87,258.25v-4.33c0-1.55.46-3.09,1.55-3.09v-7a38.53,38.53,0,0,1,6.18-.77v-2.32h2.16v-8.5h9.84l3,3v2h-2.83v4.54h8.13V239.5l4.23,2.78V253.1h1.65V387.23h-34Z" transform="translate(0.96 -107.82)"/><path class="cls-4" d="M717,355.09V341.34c1.41.73,2.22,1.19,2.26,1.22a1.27,1.27,0,0,0,.62.16,1.23,1.23,0,0,0,.63-2.3c-.85-.49-20.92-12.07-40.81-12.07s-37.58,10-38.32,10.42a1.2,1.2,0,0,0-.6,1.07H638a14.21,14.21,0,0,0-14.14,12.78h4.45v2.47H619.7v32.14H724.79V355.09Zm-66.2-15.25h-6.14c1.42-.71,3.52-1.7,6.14-2.77Zm5.18,0H652v-3.26c1.22-.48,2.54-1,3.94-1.45Zm5.56,0h-4.32v-5.12c1.37-.45,2.82-.88,4.32-1.29Zm6.21,0h-5V333.1q2.4-.62,5-1.1Zm5.77,0H669v-8.07c1.48-.25,3-.46,4.53-.62Zm6.8,0h-5.56V331c1.63-.14,3.28-.22,4.94-.22h.62Zm6.8,0h-5.56v-9c1.85.07,3.72.24,5.56.49Zm5.77,0h-4.53v-8.31c1.53.24,3,.54,4.53.87Zm6.21,0h-5v-7.16q2.55.61,5,1.35Zm5.56,0h-4.33v-5.42c1.5.48,3,1,4.33,1.49Zm1.24,0h0v-3.47c3.15,1.21,5.91,2.43,8.08,3.47Z" transform="translate(0.96 -107.82)"/><path class="cls-3" d="M959.76,279.67h-8.19v-2.32h-4.79V275.5h-6.26v1.85h-2.09V275.5h-4.17v1.85h-4.79v2.32h-8.19V387.23h2.57v-3.09h2.66v3.09h28v-3.09h3.6v3.09h2.58V279.67Zm-5.23,88.4v-4.33h3.6v4.33Zm3.6,2.47v4.33h-3.6v-4.33Zm-3.6-9.27v-4.33h3.6v4.33Zm0-6.8v-4.33h3.6v4.33Zm0-6.8v-4.33h3.6v4.33Zm0-6.8v-4.33h3.6v4.33Zm0-6.8v-4.33h3.6v4.33Zm0-6.8v-4.33h3.6v4.33Zm0-6.8v-4.33h3.6v4.33Zm0-6.8v-4.33h3.6v4.33Zm0-6.8v-4.33h3.6v4.33Zm0-6.8v-4.33h3.6v4.33Zm0-6.8v-4.33h3.6v4.33Zm0-6.8v-4.33h3.6v4.33Zm-30.68-4.33h2.66v4.33h-2.66Zm0,6.8h2.66v4.33h-2.66Zm0,6.8h2.66v4.33h-2.66Zm0,6.8h2.66v4.33h-2.66Zm0,6.8h2.66v4.33h-2.66Zm0,6.8h2.66v4.33h-2.66Zm0,6.8h2.66v4.33h-2.66Zm0,6.8h2.66v4.33h-2.66Zm0,6.8h2.66v4.33h-2.66Zm0,6.8h2.66v4.33h-2.66Zm0,6.8h2.66v4.33h-2.66Zm0,6.8h2.66v4.33h-2.66Zm0,6.8h2.66v4.33h-2.66Zm0,6.8h2.66v4.33h-2.66Zm0,11.13v-4.33h2.66v4.33Zm30.68,0v-4.33h3.6v4.33Z" transform="translate(0.96 -107.82)"/><path class="cls-3" d="M863.34,310.07v-1.86h2.11v-2.47H857s.62-7.21-4.53-7.21V295H846.7v3.51c-5.15,0-4.53,7.21-4.53,7.21h-8.45v2.47h2.11v1.86h-5.1v2.06h3.56v75.1h30.6v-75.1h3.55v-2.06Z" transform="translate(0.96 -107.82)"/><polygon class="cls-3" points="829 204.61 829 203.38 827.22 203.38 827.22 199.05 827.22 189.47 825.21 189.47 825.21 195.75 821.04 195.75 821.04 199.05 818.57 199.05 818.57 194.26 805.59 194.26 805.59 199.05 803.11 199.05 803.11 195.75 798.94 195.75 798.94 189.47 796.93 189.47 796.93 199.05 796.93 203.38 795.15 203.38 795.15 204.61 796.93 204.61 796.93 207.24 795.15 207.24 795.15 208.47 796.93 208.47 796.93 211.1 795.15 211.1 795.15 212.34 796.93 212.34 796.93 214.97 795.15 214.97 795.15 216.2 796.93 216.2 796.93 218.83 795.15 218.83 795.15 220.07 796.93 220.07 796.93 222.69 795.15 222.69 795.15 223.93 796.93 223.93 796.93 226.56 795.15 226.56 795.15 227.79 796.93 227.79 796.93 230.42 795.15 230.42 795.15 231.66 796.93 231.66 796.93 234.28 795.15 234.28 795.15 235.52 796.93 235.52 796.93 238.15 795.15 238.15 795.15 239.38 796.93 239.38 796.93 242.01 795.15 242.01 795.15 243.25 796.93 243.25 796.93 245.87 795.15 245.87 795.15 247.11 796.93 247.11 796.93 249.74 795.15 249.74 795.15 250.97 796.93 250.97 796.93 253.6 795.15 253.6 795.15 254.84 796.93 254.84 796.93 257.46 795.15 257.46 795.15 258.7 796.93 258.7 796.93 261.33 795.15 261.33 795.15 262.56 796.93 262.56 796.93 265.19 795.15 265.19 795.15 266.43 796.93 266.43 796.93 269.06 795.15 269.06 795.15 270.29 796.93 270.29 796.93 272.92 795.15 272.92 795.15 274.15 796.93 274.15 796.93 276.78 795.15 276.78 795.15 278.02 796.93 278.02 796.93 279.41 827.22 279.41 827.22 278.02 829 278.02 829 276.78 827.22 276.78 827.22 274.15 829 274.15 829 272.92 827.22 272.92 827.22 270.29 829 270.29 829 269.06 827.22 269.06 827.22 266.43 829 266.43 829 265.19 827.22 265.19 827.22 262.56 829 262.56 829 261.33 827.22 261.33 827.22 258.7 829 258.7 829 257.46 827.22 257.46 827.22 254.84 829 254.84 829 253.6 827.22 253.6 827.22 250.97 829 250.97 829 249.74 827.22 249.74 827.22 247.11 829 247.11 829 245.87 827.22 245.87 827.22 243.25 829 243.25 829 242.01 827.22 242.01 827.22 239.38 829 239.38 829 238.15 827.22 238.15 827.22 235.52 829 235.52 829 234.28 827.22 234.28 827.22 231.66 829 231.66 829 230.42 827.22 230.42 827.22 227.79 829 227.79 829 226.56 827.22 226.56 827.22 223.93 829 223.93 829 222.69 827.22 222.69 827.22 220.07 829 220.07 829 218.83 827.22 218.83 827.22 216.2 829 216.2 829 214.97 827.22 214.97 827.22 212.34 829 212.34 829 211.1 827.22 211.1 827.22 208.47 829 208.47 829 207.24 827.22 207.24 827.22 204.61 829 204.61"/><polygon class="cls-3" points="790.54 211.1 790.54 208.84 788.38 208.84 788.38 200.18 781.89 200.18 781.89 197.91 775.5 197.91 775.5 194.51 775.5 188.75 773.03 188.75 773.03 194.51 768.8 194.51 768.8 197.91 762.11 197.91 762.11 200.18 755.62 200.18 755.62 208.84 753.45 208.84 753.45 211.1 755.62 211.1 755.62 212.75 753.45 212.75 753.45 215.02 755.62 215.02 755.62 216.67 753.45 216.67 753.45 218.93 755.62 218.93 755.62 220.58 753.45 220.58 753.45 222.85 755.62 222.85 755.62 224.5 753.45 224.5 753.45 226.76 755.62 226.76 755.62 228.41 753.45 228.41 753.45 230.68 755.62 230.68 755.62 232.33 753.45 232.33 753.45 234.59 755.62 234.59 755.62 236.4 753.45 236.4 753.45 238.66 755.62 238.66 755.62 240.47 753.45 240.47 753.45 242.73 755.62 242.73 755.62 244.53 753.45 244.53 753.45 246.8 755.62 246.8 755.62 248.6 753.45 248.6 753.45 250.87 755.62 250.87 755.62 252.67 753.45 252.67 753.45 254.94 755.62 254.94 755.62 256.74 753.45 256.74 753.45 259.01 755.62 259.01 755.62 260.81 753.45 260.81 753.45 263.08 755.62 263.08 755.62 264.88 753.45 264.88 753.45 267.15 755.62 267.15 755.62 268.95 753.45 268.95 753.45 271.22 755.62 271.22 755.62 273.02 753.45 273.02 753.45 275.29 755.62 275.29 755.62 277.14 753.45 277.14 753.45 279.41 755.62 279.41 788.38 279.41 790.54 279.41 790.54 277.14 788.38 277.14 788.38 275.29 790.54 275.29 790.54 273.02 788.38 273.02 788.38 271.22 790.54 271.22 790.54 268.95 788.38 268.95 788.38 267.15 790.54 267.15 790.54 264.88 788.38 264.88 788.38 263.08 790.54 263.08 790.54 260.81 788.38 260.81 788.38 259.01 790.54 259.01 790.54 256.74 788.38 256.74 788.38 254.94 790.54 254.94 790.54 252.67 788.38 252.67 788.38 250.87 790.54 250.87 790.54 248.6 788.38 248.6 788.38 246.8 790.54 246.8 790.54 244.53 788.38 244.53 788.38 242.73 790.54 242.73 790.54 240.47 788.38 240.47 788.38 238.66 790.54 238.66 790.54 236.4 788.38 236.4 788.38 234.59 790.54 234.59 790.54 232.33 788.38 232.33 788.38 230.68 790.54 230.68 790.54 228.41 788.38 228.41 788.38 226.76 790.54 226.76 790.54 224.5 788.38 224.5 788.38 222.85 790.54 222.85 790.54 220.58 788.38 220.58 788.38 218.93 790.54 218.93 790.54 216.67 788.38 216.67 788.38 215.02 790.54 215.02 790.54 212.75 788.38 212.75 788.38 211.1 790.54 211.1"/><polygon class="cls-3" points="323.96 125.75 323.96 122.65 321.13 122.65 321.13 108.8 317.31 106.43 317.31 90.05 314.84 90.05 314.84 104.73 285.48 99.01 285.48 108.9 280.74 108.8 280.74 279.41 321.13 279.41 321.13 274.41 323.96 274.41 323.96 271.32 321.13 271.32 321.13 268.69 323.96 268.69 323.96 265.6 321.13 265.6 321.13 262.98 323.96 262.98 323.96 259.89 321.13 259.89 321.13 257.26 323.96 257.26 323.96 254.17 321.13 254.17 321.13 251.54 323.96 251.54 323.96 248.45 321.13 248.45 321.13 245.82 323.96 245.82 323.96 242.73 321.13 242.73 321.13 240.1 323.96 240.1 323.96 237.01 321.13 237.01 321.13 234.39 323.96 234.39 323.96 231.3 321.13 231.3 321.13 228.67 323.96 228.67 323.96 225.58 321.13 225.58 321.13 222.95 323.96 222.95 323.96 219.86 321.13 219.86 321.13 217.23 323.96 217.23 323.96 214.14 321.13 214.14 321.13 211.51 323.96 211.51 323.96 208.42 321.13 208.42 321.13 205.8 323.96 205.8 323.96 202.71 321.13 202.71 321.13 200.08 323.96 200.08 323.96 196.99 321.13 196.99 321.13 194.36 323.96 194.36 323.96 191.27 321.13 191.27 321.13 188.64 323.96 188.64 323.96 185.55 321.13 185.55 321.13 182.93 323.96 182.93 323.96 179.83 321.13 179.83 321.13 177.21 323.96 177.21 323.96 174.12 321.13 174.12 321.13 171.49 323.96 171.49 323.96 168.4 321.13 168.4 321.13 165.77 323.96 165.77 323.96 162.68 321.13 162.68 321.13 160.05 323.96 160.05 323.96 156.96 321.13 156.96 321.13 154.34 323.96 154.34 323.96 151.24 321.13 151.24 321.13 148.62 323.96 148.62 323.96 145.53 321.13 145.53 321.13 142.9 323.96 142.9 323.96 139.81 321.13 139.81 321.13 137.18 323.96 137.18 323.96 134.09 321.13 134.09 321.13 131.46 323.96 131.46 323.96 128.37 321.13 128.37 321.13 125.75 323.96 125.75"/><polygon class="cls-3" points="405.05 86.34 401.65 86.34 397.94 86.34 397.94 84.87 397.94 80.62 395.62 80.62 395.62 82.74 393.3 82.74 393.3 84.87 382.64 84.87 382.64 86.34 376.92 86.34 376.92 279.41 401.65 279.41 401.65 91.59 405.05 91.59 405.05 86.34"/><polygon class="cls-4" points="171.51 216.31 171.51 213.47 169.09 213.47 165.07 213.47 165.07 207.7 154.76 207.7 154.76 213.47 150.75 213.47 148.33 213.47 148.33 216.31 150.75 216.31 150.75 218.57 148.33 218.57 148.33 221.41 150.75 221.41 150.75 223.67 148.33 223.67 148.33 226.5 150.75 226.5 150.75 228.77 148.33 228.77 148.33 231.6 150.75 231.6 150.75 233.87 148.33 233.87 148.33 236.71 150.75 236.71 150.75 238.97 148.33 238.97 148.33 241.81 150.75 241.81 150.75 244.07 148.33 244.07 148.33 246.9 150.75 246.9 150.75 249.17 148.33 249.17 148.33 252 150.75 252 150.75 254.27 148.33 254.27 148.33 257.1 150.75 257.1 150.75 259.37 148.33 259.37 148.33 262.2 150.75 262.2 150.75 264.47 148.33 264.47 148.33 267.3 150.75 267.3 150.75 269.57 148.33 269.57 148.33 272.4 150.75 272.4 150.75 274.67 148.33 274.67 148.33 277.5 150.75 277.5 150.75 279.41 169.09 279.41 169.09 277.5 171.51 277.5 171.51 274.67 169.09 274.67 169.09 272.4 171.51 272.4 171.51 269.57 169.09 269.57 169.09 267.3 171.51 267.3 171.51 264.47 169.09 264.47 169.09 262.2 171.51 262.2 171.51 259.37 169.09 259.37 169.09 257.1 171.51 257.1 171.51 254.27 169.09 254.27 169.09 252 171.51 252 171.51 249.17 169.09 249.17 169.09 246.9 171.51 246.9 171.51 244.07 169.09 244.07 169.09 241.81 171.51 241.81 171.51 238.97 169.09 238.97 169.09 236.71 171.51 236.71 171.51 233.87 169.09 233.87 169.09 231.6 171.51 231.6 171.51 228.77 169.09 228.77 169.09 226.5 171.51 226.5 171.51 223.67 169.09 223.67 169.09 221.41 171.51 221.41 171.51 218.57 169.09 218.57 169.09 216.31 171.51 216.31"/><polygon class="cls-4" points="216.81 232.02 216.81 229.57 210.78 229.57 210.78 232.02 203.83 232.02 203.83 227.12 193.32 227.12 193.32 232.02 189.61 232.02 189.61 229.57 182.34 229.57 182.34 232.02 176.22 232.02 176.22 279.41 221.34 279.41 221.34 232.02 216.81 232.02"/><polygon class="cls-4" points="256.91 188.13 256.91 185.86 260 185.86 260 182.05 233.73 182.05 233.73 185.86 236.82 185.86 236.82 188.13 229.25 188.13 229.25 279.41 264.49 279.41 264.49 188.13 256.91 188.13"/><polygon class="cls-4" points="330.37 243.56 330.37 236.55 325.02 236.55 325.02 229.54 320.79 229.54 320.79 225.01 312.04 225.01 312.04 216.77 308.63 216.77 308.63 214.09 306.06 214.09 306.06 216.77 303.64 216.77 303.64 214.09 301.06 214.09 301.06 216.77 298.64 216.77 298.64 214.09 296.07 214.09 296.07 216.77 292.67 216.77 292.67 225.01 283.91 225.01 283.91 229.54 279.69 229.54 279.69 236.55 274.33 236.55 274.33 243.56 270.67 243.56 270.67 279.41 334.03 279.41 334.03 243.56 330.37 243.56"/><path class="cls-4" d="M420.68,337.54c-12.46,0-22.56,9.83-22.56,22h2.68v27.73h39.77V359.5h2.67C443.24,347.37,433.14,337.54,420.68,337.54Z" transform="translate(0.96 -107.82)"/><polygon class="cls-4" points="609.65 232.84 609.65 230.41 605.74 230.41 597.91 230.41 597.91 224.81 580.6 224.81 580.6 230.41 574.01 230.41 574.01 232.84 574.01 249.33 574.01 264.4 574.01 279.41 605.74 279.41 605.74 264.4 609.65 264.4 609.65 249.33 605.74 249.33 605.74 232.84 609.65 232.84"/><polygon class="cls-4" points="37.6 165.47 37.6 160.5 32.72 160.5 32.72 156.51 7.96 156.51 7.96 160.5 3.08 160.5 3.08 165.47 0.96 165.47 0.96 279.41 39.72 279.41 39.72 165.47 37.6 165.47"/><path class="cls-4" d="M135.82,285.17V282.9s-13.88-2.71-19.85,1.7h-4.24v4.56H109.8v18.66h-2.89v26.47h-3.47v26.47H98.82v26.47H141V285.17Z" transform="translate(0.96 -107.82)"/><polygon class="cls-4" points="78.36 167.28 78.36 161.02 68.69 161.02 68.69 167.28 55.78 167.28 55.78 279.41 91.26 279.41 91.26 167.28 78.36 167.28"/><path class="cls-4" d="M392.22,144.9v-1.17l.7-.52v-1.74s-11.67-4.49-15.76-5.74-4.2-2.63-4.14-3.2a18.65,18.65,0,0,0,3.37-2.38,21.34,21.34,0,0,0-3.25-1.12,2.14,2.14,0,0,0-2.41-2.16v-1.59h-.89v1.59h-2.78c0-1.71-.51-2.51-1-2.88l-1.24-16.17L363.55,124c-.53.36-1,1.16-1,2.87h-2.79v-1.59h-.88v1.59a2.14,2.14,0,0,0-2.41,2.16,21.34,21.34,0,0,0-3.25,1.12,18.23,18.23,0,0,0,3.37,2.38c.06.57-.06,1.94-4.15,3.2s-15.75,5.74-15.75,5.74v1.74l.69.52v1.17l-5.89,2v.66c0,.38,2.78,1.71,8.45,1.71A5.19,5.19,0,0,1,341,151v2.07L338,155a11.75,11.75,0,0,0,6.78,2.63h4.92s6.41,46.62,6.41,50.61.38,34.68-1.51,48.14c-1.49,10.54-7.2,58.7-9.6,79.06-2.79.89-4.43,2-4.43,3.13s1.37,2.06,3.72,2.9c-.24,2-.37,3.1-.37,3.1l-5.05,42.71h4.74l3-30.64s.63-5.83,1.53-14.11a71.59,71.59,0,0,0,11,1.34v43.41h11.37v-9h14.65l.89,9h4.74l-5.05-42.71s-.14-1.12-.37-3.1c2.35-.84,3.71-1.83,3.71-2.9s-1.64-2.24-4.42-3.13c-2.41-20.36-8.12-68.52-9.6-79.06-1.9-13.46-1.52-44.16-1.52-48.14s6.42-50.61,6.42-50.61h4.92a11.75,11.75,0,0,0,6.78-2.63l-3.06-1.88V151a5.19,5.19,0,0,1,1.11-1.76c5.66,0,8.45-1.33,8.45-1.71v-.66ZM374.7,283.1h-4.23V267.44h2.37C373.52,273.91,374.2,279.36,374.7,283.1Zm.63,4.56c.17,1.19.65,5.27,1.28,10.9h-6.14V285.47H375Zm-4.86,28.74h8.12c.48,4.34,1,8.79,1.44,13.09h-9.56Zm0-2.38V300.94h6.41c.44,3.91.93,8.39,1.45,13.08ZM353.41,157.58h5.69V283.1h-4.24c1.4-10.42,4.24-34.16,4.24-55.94C359.1,201,355.12,164.59,353.41,157.58ZM349,334.39c2.07-18.91,4.77-43.51,5.23-46.73.08-.51.18-1.25.31-2.19h4.56v47.76A74.25,74.25,0,0,0,349,334.39Zm34,22.2.38,3.82H370.47V347.33H382C382.58,352.94,383,356.59,383,356.59Zm-12.51,19.29V362.79h13.12l1.3,13.09ZM381.72,345H370.47v-1.13a71.59,71.59,0,0,0,11-1.34C381.54,343.33,381.63,344.16,381.72,345Zm-11.25-11.72v-1.37h9.82c.09.85.18,1.7.27,2.53A73.9,73.9,0,0,0,370.47,333.23Zm0-106.07c0,13,1,26.74,2.13,37.9h-2.13V157.58h5.69C374.45,164.59,370.47,201,370.47,227.16Z" transform="translate(0.96 -107.82)"/><path class="cls-4" d="M512.69,322.71v-2.36H497.18v2.51l-5.89.15v-4H475.78v4.67c-5.19.27-8.31.5-8.31.5v63.08h86.65V324.15S535.11,322.78,512.69,322.71Z" transform="translate(0.96 -107.82)"/><polygon class="cls-4" points="911.75 237.41 911.75 235.04 930.1 235.04 930.1 230.57 969.75 230.57 969.75 227.84 988.53 227.84 988.53 230.57 993.66 230.57 993.66 235.04 993.66 236.04 993.66 237.41 993.66 239.77 993.66 279.41 908.47 279.41 908.47 237.41 911.75 237.41"/><polygon class="cls-4" points="877.62 244.06 877.62 241.83 870.61 241.83 869.08 241.83 869.08 244.06 861.78 244.06 861.78 241.83 854.77 241.83 853.25 241.83 853.25 244.06 842.76 244.06 842.76 241.83 837.26 241.83 836.07 241.83 836.07 244.06 822.29 244.06 822.29 279.41 908.47 279.41 908.47 244.06 877.62 244.06"/><polygon class="cls-4" points="801.64 239.83 801.64 235.35 790.75 235.35 790.75 239.83 788.32 239.83 783.81 246.19 766.78 246.19 766.78 255.53 731.32 255.53 731.32 279.41 766.78 279.41 766.78 279.22 808.58 279.22 808.58 246.19 804.08 239.83 801.64 239.83"/><rect class="cls-5" y="260.81" width="1000" height="16.43"/><rect class="cls-4" y="262.97" width="1000" height="16.43"/><path class="cls-2" d="M843.64,365.55v-3.62H839l-8.26,7.23h-3.09V364h-3.1v5.68H822v4.9H811.12v-5.42H799.76v-7.23h-6.71v7.23H779.11c-7.75,0-10.85,10.33-10.85,10.33h-3.61c0,2.06,6.71,7.74,6.71,7.74h86.22v-7.74Zm-22.2,16.52H791.5v-4.13h29.94Z" transform="translate(0.96 -107.82)"/></svg>