<svg xmlns="http://www.w3.org/2000/svg" viewBox="0 0 440.95 455.27"><defs><style>.cls-1{fill:#e0e0e0;}.cls-2{fill:#ebebeb;}.cls-3{fill:#f5f5f5;}.cls-4{fill:#fafafa;}.cls-5{fill:#fff;}.cls-6{fill:#263238;}.cls-7{fill:#455a64;}.cls-8{fill:#ff725e;}.cls-9{opacity:0.3;}.cls-10{fill:#c78976;}.cls-11{fill:#a3615c;}.cls-12{opacity:0.6;}</style></defs><g id="Background_Complete" data-name="Background Complete"><polygon class="cls-1" points="219.58 41.91 221.08 26.08 212.81 26.27 208.44 12.85 209.38 29.98 217.78 29.77 219.58 41.91"/><polygon class="cls-1" points="215.77 44.19 209.96 35.14 205.63 38.69 197.71 33.37 205.36 42.1 209.74 38.48 215.77 44.19"/><polygon class="cls-1" points="224.95 43.06 231.45 36.58 227.71 33.61 230.72 26.04 224.82 34 228.63 37 224.95 43.06"/><polygon class="cls-1" points="166.33 114.85 157.07 101.92 150.95 107.48 138.85 100.22 150.8 112.53 156.99 106.86 166.33 114.85"/><polygon class="cls-1" points="164.94 119.06 154.62 116.05 153.68 121.56 144.22 122.75 155.71 124.31 156.65 118.71 164.94 119.06"/><polygon class="cls-1" points="262.86 112.98 272.12 100.05 278.24 105.61 290.33 98.36 278.38 110.66 272.19 105 262.86 112.98"/><polygon class="cls-1" points="264.24 117.2 274.56 114.18 275.5 119.7 284.97 120.88 273.47 122.45 272.54 116.85 264.24 117.2"/><path class="cls-2" d="M128.78,377.4c4.73-2.44,10.29-2.76,15.53-1.89,2.82.47,5.76,1.31,7.68,3.43s2.28,5.84.08,7.65a7.31,7.31,0,0,1-4.84,1.23c-4.11-.05-8.66-.77-11.94,1.7-1.87,1.41-3.12,3.75-5.36,4.45a5.29,5.29,0,0,1-5.82-2.59,9.05,9.05,0,0,1-.66-6.67A10.18,10.18,0,0,1,128.78,377.4Z" transform="translate(-30.4 -30.4)"/><path class="cls-2" d="M118,356.5c2.89,4.13,8.5,2.76,11.11.25s3.7-6.17,4.7-9.65c2.29-8,4.6-16.3,2.89-24.4a13.5,13.5,0,0,0-3.11-6.63,7.08,7.08,0,0,0-6.71-2.23c-2.83.75-4.59,3.52-5.86,6.16A58.09,58.09,0,0,0,115.23,345c0,4,.46,8.23,2.73,11.55" transform="translate(-30.4 -30.4)"/><path class="cls-2" d="M110,362.42c3.13-3.72,3.73-9.15,2.33-13.81s-4.55-8.63-8.18-11.87a44.16,44.16,0,0,0-14.65-8.65A15.77,15.77,0,0,0,82.94,327a6.92,6.92,0,0,0-5.53,3.35c-1.54,2.94-.07,6.51,1.53,9.42a111.1,111.1,0,0,0,9.63,14.65c2.88,3.72,6.19,7.39,10.58,9.07s9,1.48,11.3-1.56" transform="translate(-30.4 -30.4)"/><path class="cls-1" d="M117.76,418.74a7.85,7.85,0,0,0,.26-1.87c.14-1.37.3-3.08.5-5.12s.56-4.72,1.15-7.5a58,58,0,0,1,2.73-8.86,32.94,32.94,0,0,1,4.52-8,17,17,0,0,1,5.72-4.75,15.89,15.89,0,0,1,4.82-1.5,9,9,0,0,0,1.86-.27,9.15,9.15,0,0,0-1.89,0,14.55,14.55,0,0,0-5,1.31,16.83,16.83,0,0,0-6,4.79,32.31,32.31,0,0,0-4.69,8.18,54,54,0,0,0-2.7,9,63.1,63.1,0,0,0-1,7.6c-.16,2.17-.23,3.93-.26,5.15A9.63,9.63,0,0,0,117.76,418.74Z" transform="translate(-30.4 -30.4)"/><path class="cls-1" d="M118.12,414.8a4.52,4.52,0,0,0,0-.87c0-.65,0-1.47,0-2.48,0-2.16,0-5.29.11-9.14.19-7.72.86-16,2.14-27.73,1.21-11,2.85-23.82,4.57-32.15.37-1.89.74-3.6,1.09-5.09s.62-2.79.89-3.83.43-1.78.58-2.42a3.08,3.08,0,0,0,.15-.86,5,5,0,0,0-.3.82c-.19.62-.43,1.41-.72,2.38s-.65,2.32-1,3.81-.8,3.18-1.21,5.08a283.74,283.74,0,0,0-4.8,29.83c-1.29,11.73-1.87,22.41-1.92,30.15,0,3.86,0,7,.14,9.15q.09,1.51.15,2.49A3,3,0,0,0,118.12,414.8Z" transform="translate(-30.4 -30.4)"/><path class="cls-1" d="M118.17,394.2a17.79,17.79,0,0,0,0-2.6c-.1-1.67-.33-4.08-.8-7a89.34,89.34,0,0,0-2.29-10.25,82.3,82.3,0,0,0-4.29-12.14,64.71,64.71,0,0,0-12.59-19.62,32.55,32.55,0,0,0-3-2.75c-.45-.39-.85-.77-1.26-1.07l-1.15-.8a17.6,17.6,0,0,0-2.19-1.4c-.12.17,3.1,2.07,7.17,6.4a67.82,67.82,0,0,1,12.28,19.55,96.08,96.08,0,0,1,4.32,12,104.43,104.43,0,0,1,2.43,10.16c.54,2.92.85,5.31,1,7A15.1,15.1,0,0,0,118.17,394.2Z" transform="translate(-30.4 -30.4)"/><polygon class="cls-1" points="67.86 400.15 69.92 428.43 106.25 428.43 108.32 400.15 67.86 400.15"/><rect class="cls-1" x="64.35" y="389" width="48.31" height="11.15"/><polygon class="cls-2" points="64.35 427.35 64.35 430.44 66.62 430.44 111.86 430.44 111.86 427.35 64.35 427.35"/><polygon class="cls-1" points="68.84 435.88 66.62 430.44 110.13 430.44 107.53 435.88 68.84 435.88"/><path class="cls-3" d="M138,439.79a1.5,1.5,0,0,1-.17.26l-.54.72c-.52.66-1.22,1.57-2.12,2.71l-.09.12-.09-.13-5.2-7.19h.3L125,443.53l-.16.23-.18-.22-6.07-7.22H119l-.34.42-5.43,6.81-.18.23-.16-.24-5.13-7.25.3,0-6.31,7.18-.11.13-.08-.14-2-3.32c-.21-.36-.37-.65-.51-.88a1.33,1.33,0,0,1-.15-.32s.08.09.21.28l.56.85c.51.79,1.2,1.89,2.07,3.26l-.19,0,6.2-7.27.16-.19.14.2,5.17,7.22h-.35l5.42-6.82.33-.42.18-.22.17.22,6.06,7.24h-.34l5.17-7.21.15-.22.15.22,5.09,7.27H135l2.2-2.64.59-.68C138,439.86,138,439.78,138,439.79Z" transform="translate(-30.4 -30.4)"/><path class="cls-3" d="M139.22,430.36c0,.12-9.1.22-20.33.22s-20.33-.1-20.33-.22,9.1-.23,20.33-.23S139.22,430.23,139.22,430.36Z" transform="translate(-30.4 -30.4)"/><path class="cls-3" d="M141.06,461.14c0,.12-9.9.23-22.1.23s-22.1-.11-22.1-.23,9.89-.23,22.1-.23S141.06,461,141.06,461.14Z" transform="translate(-30.4 -30.4)"/><polygon class="cls-2" points="48.82 432.07 48.82 34.63 43.9 34.63 43.9 432.15 3.22 435.21 43.9 435.21 48.82 435.21 89.49 435.21 48.82 432.07"/><polygon class="cls-1" points="18.27 0 0 81.64 92.72 81.64 71.86 0.25 18.27 0"/><path class="cls-1" d="M65.66,145.13c-.21,0-.36-10-.33-22.38s.22-22.38.43-22.38.36,10,.33,22.38S65.87,145.13,65.66,145.13Z" transform="translate(-30.4 -30.4)"/><path class="cls-1" d="M65.62,145c0-.1.66,0,1,.83a1.65,1.65,0,0,1-.24,1.49,1.69,1.69,0,0,1-2.93-1.08,1.63,1.63,0,0,1,.78-1.29c.78-.46,1.34-.08,1.27,0s-.49,0-.95.45a1.21,1.21,0,0,0-.4.86,1,1,0,0,0,1.69.62,1.23,1.23,0,0,0,.25-.92C66,145.31,65.57,145.08,65.62,145Z" transform="translate(-30.4 -30.4)"/><path class="cls-1" d="M415.73,312.82c.65-3.18.21-6.48.93-12.47s3.57-8.38,5.15-12.63,3.73-14.17,3.73-14.17H423.8s-5.65,18.45-7.27,22.63-1.57,8-1.86,11.76a85.58,85.58,0,0,1-1.8,10.13s-2.08-21.38-2.94-28.89-.47-22.12-.47-22.12l-2-.85v11.08s.82,10.57,1.48,16.63,2.22,25.72,1.82,40.16a92.55,92.55,0,0,0,3.51,26.84c.06.47.59,14.73.31,21.8s-.46,35-.15,36.28l6.29,1.51s-3.66-24.66-3-42.49-.82-16.85-3.16-25.38S413,321,413,321A57.68,57.68,0,0,0,415.73,312.82Z" transform="translate(-30.4 -30.4)"/><path class="cls-2" d="M423,275.86s9-2.64,14.73-9.9,9.46-13.19,15.39-16c-11.43-5.06-18.47,5.06-24.18,8.14s-11.44,5.27-10.56,11.21S423,275.86,423,275.86Z" transform="translate(-30.4 -30.4)"/><path class="cls-2" d="M459.76,185.75a55.59,55.59,0,0,1-2,6.44,70.69,70.69,0,0,1-3.53,7.88,49.1,49.1,0,0,1-4.68,7.39,19.17,19.17,0,0,1-5.62,5.15,8.62,8.62,0,0,1-1.34.58A85.7,85.7,0,0,0,428,219.35c-3.2-6.31-3.74-11.61-3.11-15.95a23.38,23.38,0,0,1,1.54-5.52,32.09,32.09,0,0,1,2.48-4.79c.48-.79.93-1.5,1.29-2.1s.78-1.3,1.21-2a45.18,45.18,0,0,1,8.15-9.79c.72-.64,1.48-1.27,2.29-1.89a14.83,14.83,0,0,1,3.13-1.8c5.71-2.46,12.92-2.16,12.92-2.16s1.32,1.55,2.42,6.82c0,.12,0,.23.05.35A16.73,16.73,0,0,1,459.76,185.75Z" transform="translate(-30.4 -30.4)"/><path class="cls-2" d="M435.51,237.6s15.83-10.78,35.84-8.8c-10.77-10.55-19.57-10.11-27-6.37S432.21,229,435.51,237.6Z" transform="translate(-30.4 -30.4)"/><path class="cls-2" d="M417.26,220.45s-7.69-9.9-18.25-12.53-22.64-2.2-22.64-2.2,5.93-8.58,18.91-7.92,16.93,4,19.13,8.36S419,215.39,417.26,220.45Z" transform="translate(-30.4 -30.4)"/><path class="cls-2" d="M415.73,252.55c0,1.35-.09,2.64-.17,3.86-.47,6.52-2,11-7.53,11.75,0,0-7.92-2-11-9.68s-1.32-9-5.93-14.07-7-17.59-7-17.59h0a26.2,26.2,0,0,1,16.22,1.55l.36.17C408.69,232.45,415.94,244.1,415.73,252.55Z" transform="translate(-30.4 -30.4)"/><path class="cls-2" d="M394.84,275.63s-1.32,1.77-9.46,2.42-10.11,7.26-19.35,8.8-10.55,1.32-14.51-1.1c1.79-5.55,6.26-7.22,10.33-10.41a19.38,19.38,0,0,0,3.57-3.56c.14-.18.27-.35.39-.54a14.1,14.1,0,0,1,7.57-5h0a25.85,25.85,0,0,1,7.24-1.07,20.18,20.18,0,0,1,8.27,1.43C394.62,269.26,394.62,272.56,394.84,275.63Z" transform="translate(-30.4 -30.4)"/><path class="cls-1" d="M445.53,430.56a75.88,75.88,0,0,1-10.14,30.78c-1.5,2.54-4.87,4.18-8.61,4.18h-17c-3.73,0-7.1-1.64-8.61-4.18A75.72,75.72,0,0,1,391,430.56a94.77,94.77,0,0,1-.54-12.81h55.56A94.79,94.79,0,0,1,445.53,430.56Z" transform="translate(-30.4 -30.4)"/><path class="cls-2" d="M446.19,430.56a77.83,77.83,0,0,1-10.38,31.52c-1.54,2.6-5,4.28-8.82,4.28H409.58c-3.83,0-7.28-1.68-8.82-4.28a77.53,77.53,0,0,1-10.38-31.52Z" transform="translate(-30.4 -30.4)"/><path class="cls-2" d="M441.76,368.06a23.3,23.3,0,0,0-17.47-7.37l-.18.17c-1.32,6.63,1.72,13.7,6.84,18.13s12,6.43,18.78,6.56A31,31,0,0,0,441.76,368.06Z" transform="translate(-30.4 -30.4)"/><path class="cls-2" d="M402.52,374.94a15.67,15.67,0,0,0-7.93,1,43.37,43.37,0,0,0-16.21,9.88c5.45,1.88,11.15,3.62,16.87,3s11.5-4.24,12.94-9.82C407.67,376.31,405.17,375.46,402.52,374.94Z" transform="translate(-30.4 -30.4)"/><path class="cls-2" d="M364.1,340.64a11.71,11.71,0,0,0,5.62,4.45c2.22,1,4.58,1.66,6.7,2.86,3.8,2.14,6.54,5.76,10.09,8.3a21.58,21.58,0,0,0,17.65,3.33,20.7,20.7,0,0,0-5.3-17.06,24,24,0,0,0-16.42-7.45A28.68,28.68,0,0,0,365,340.23" transform="translate(-30.4 -30.4)"/><path class="cls-2" d="M420.25,347.63c-2.22-5.44,0-12.69,4.25-16.71,2.8-2.63,6.48-4.05,10.08-5.36q4.51-1.65,9.06-3.2a3,3,0,0,1,2.21-.16c1,.48,1.16,1.87,1.1,3a29,29,0,0,1-3.7,13.13A19.68,19.68,0,0,1,433,347.07c-4.35,1.5-9,3.16-12.73.56" transform="translate(-30.4 -30.4)"/><path class="cls-2" d="M403,327.29a9,9,0,0,0-4.49-6.5,17.79,17.79,0,0,0-7.81-2.21A35.44,35.44,0,0,0,372,322.25a63.18,63.18,0,0,0,16.89,8.14,19.16,19.16,0,0,0,7.7,1.1,8.09,8.09,0,0,0,6.37-4" transform="translate(-30.4 -30.4)"/><path class="cls-2" d="M403,298.54c-4.63-2.73-10-4-15.32-4.62.72,5.63,1.91,11.6,5.9,15.63a14.31,14.31,0,0,0,9,4.18,15.93,15.93,0,0,0,10.19-2.66v-.28C411.49,305.58,407.63,301.26,403,298.54Z" transform="translate(-30.4 -30.4)"/><path class="cls-2" d="M431.73,287c-2.91,1.92-3.14,6.34-1.46,9.38s4.75,5,7.68,6.89A85.45,85.45,0,0,0,449.81,310c5.34,2.31,11.23,3.57,16,6.95a37.55,37.55,0,0,0-2.9-18.72,25.23,25.23,0,0,0-13.32-13.1c-5.95-2.31-13.12-1.7-18.19,2.18" transform="translate(-30.4 -30.4)"/><path class="cls-1" d="M432,288.27c0,.1-1.42.72-3.55,2.11a30.66,30.66,0,0,0-3.54,2.73,32.89,32.89,0,0,0-3.7,4,32.33,32.33,0,0,0-2.9,4.62,29.53,29.53,0,0,0-1.72,4.12c-.79,2.42-1,4-1.11,4a4.48,4.48,0,0,1,.09-1.12c0-.36.12-.79.24-1.29a17.26,17.26,0,0,1,.42-1.69,27.6,27.6,0,0,1,1.63-4.22,30.44,30.44,0,0,1,2.93-4.73,29.65,29.65,0,0,1,3.79-4,27.26,27.26,0,0,1,3.66-2.68c.54-.35,1.07-.6,1.52-.84a9.28,9.28,0,0,1,1.19-.56A4.81,4.81,0,0,1,432,288.27Z" transform="translate(-30.4 -30.4)"/><path class="cls-1" d="M459.36,305.88a9.1,9.1,0,0,1-.9-1.13c-.56-.74-1.37-1.8-2.44-3.06a53.56,53.56,0,0,0-9.44-8.74,33.46,33.46,0,0,0-6.07-3.62,13.94,13.94,0,0,0-5.55-1.27,10.53,10.53,0,0,0-3.8.64c-.85.33-1.29.6-1.32.56a1.48,1.48,0,0,1,.3-.23,6,6,0,0,1,.94-.52,9.81,9.81,0,0,1,3.88-.83,14,14,0,0,1,5.75,1.19,32.47,32.47,0,0,1,6.18,3.64,48.63,48.63,0,0,1,9.42,8.94c1,1.3,1.82,2.4,2.33,3.18A6.7,6.7,0,0,1,459.36,305.88Z" transform="translate(-30.4 -30.4)"/><path class="cls-1" d="M443.39,252.69c.05.08-1.49,1-3.79,2.71a53.21,53.21,0,0,0-14.68,16.72c-1.4,2.5-2.11,4.14-2.2,4.1a6.4,6.4,0,0,1,.42-1.18,32,32,0,0,1,1.45-3.11,47.41,47.41,0,0,1,14.79-16.84c1.19-.82,2.18-1.45,2.89-1.84A5,5,0,0,1,443.39,252.69Z" transform="translate(-30.4 -30.4)"/><path class="cls-1" d="M394.59,232.18s.14,0,.37.2.58.35,1,.66a27.54,27.54,0,0,1,3.39,2.82,32.35,32.35,0,0,1,9.81,26.49,27.72,27.72,0,0,1-.74,4.36c-.11.5-.25.89-.32,1.15a1.36,1.36,0,0,1-.16.39,10.93,10.93,0,0,1,.28-1.59,35.67,35.67,0,0,0,.56-4.34,33.55,33.55,0,0,0-9.69-26.19,35.06,35.06,0,0,0-3.26-2.92A12.28,12.28,0,0,1,394.59,232.18Z" transform="translate(-30.4 -30.4)"/><path class="cls-1" d="M369.78,272.43a3.75,3.75,0,0,1,.75-.85,14.21,14.21,0,0,1,2.49-1.86,15.1,15.1,0,0,1,18.88,2.78,13.8,13.8,0,0,1,1.85,2.49,4.8,4.8,0,0,1,.48,1,28.5,28.5,0,0,0-2.61-3.26,15.26,15.26,0,0,0-18.41-2.7A27.77,27.77,0,0,0,369.78,272.43Z" transform="translate(-30.4 -30.4)"/><path class="cls-1" d="M412.39,310.32a78.16,78.16,0,0,1-8.36-3.94A81.28,81.28,0,0,1,395.9,302a79.06,79.06,0,0,1,8.37,3.94A80.37,80.37,0,0,1,412.39,310.32Z" transform="translate(-30.4 -30.4)"/><path class="cls-1" d="M380.66,321a3.06,3.06,0,0,1,.93-.1c.6,0,1.47,0,2.54,0a38.43,38.43,0,0,1,16,4.54c.94.52,1.68,1,2.18,1.31a3.45,3.45,0,0,1,.74.57c0,.07-1.18-.6-3.1-1.54a47,47,0,0,0-7.74-3,48,48,0,0,0-8.15-1.53C382,321.15,380.66,321.13,380.66,321Z" transform="translate(-30.4 -30.4)"/><path class="cls-1" d="M443.44,324.54a5.38,5.38,0,0,1-1.08.74c-.71.44-1.73,1.1-3,2a66,66,0,0,0-16.64,16.24c-.87,1.21-1.56,2.22-2,2.92a5.34,5.34,0,0,1-.77,1.06,6.42,6.42,0,0,1,.59-1.17c.4-.74,1-1.78,1.88-3a57.83,57.83,0,0,1,16.74-16.34c1.27-.81,2.33-1.42,3.07-1.81A6.44,6.44,0,0,1,443.44,324.54Z" transform="translate(-30.4 -30.4)"/><path class="cls-1" d="M371.62,340.27a10.9,10.9,0,0,1,1.58-.06c1,0,2.49,0,4.31.12a42,42,0,0,1,6.37.82,23.42,23.42,0,0,1,7.34,2.84,26.12,26.12,0,0,1,6,5.14,46.82,46.82,0,0,1,3.85,5.13c1,1.52,1.76,2.79,2.27,3.67a7.63,7.63,0,0,1,.74,1.4,12,12,0,0,1-.92-1.29c-.56-.85-1.37-2.08-2.4-3.57a53.86,53.86,0,0,0-3.91-5,26.47,26.47,0,0,0-5.87-5,24,24,0,0,0-7.17-2.82,46.26,46.26,0,0,0-6.28-.92c-1.81-.15-3.28-.23-4.3-.29A8.41,8.41,0,0,1,371.62,340.27Z" transform="translate(-30.4 -30.4)"/><path class="cls-1" d="M408.24,378.62c0,.08-1.21.08-3.13.22a45.71,45.71,0,0,0-7.44,1.16,46.67,46.67,0,0,0-7.14,2.41,29.08,29.08,0,0,1-2.87,1.25s.22-.2.69-.49a22.63,22.63,0,0,1,2-1.1,35.19,35.19,0,0,1,7.16-2.59,35.78,35.78,0,0,1,7.55-1c1,0,1.76,0,2.31,0A2.46,2.46,0,0,1,408.24,378.62Z" transform="translate(-30.4 -30.4)"/><path class="cls-1" d="M445.2,382.74c-.1.11-5-4.61-11-10.54s-10.68-10.81-10.58-10.92,5,4.61,11,10.54S445.31,382.64,445.2,382.74Z" transform="translate(-30.4 -30.4)"/><path class="cls-1" d="M425.08,361.33a23.38,23.38,0,0,0-4.34.62,23.91,23.91,0,0,0-4,1.88,8.41,8.41,0,0,1,8.3-2.5Z" transform="translate(-30.4 -30.4)"/><path class="cls-1" d="M417.41,373.56c-.08,0-.59-1-1.61-2.44a32.14,32.14,0,0,0-4.64-5.24c-2-1.86-4-3.39-5.41-4.5a17.48,17.48,0,0,1-2.25-1.88,14.7,14.7,0,0,1,2.48,1.57,53.64,53.64,0,0,1,5.55,4.42,26.75,26.75,0,0,1,4.59,5.42,14,14,0,0,1,1,1.9A2.26,2.26,0,0,1,417.41,373.56Z" transform="translate(-30.4 -30.4)"/><path class="cls-1" d="M415.36,378.34a9.37,9.37,0,0,1-7.53-.3c.05-.16,1.68.33,3.75.4S415.32,378.18,415.36,378.34Z" transform="translate(-30.4 -30.4)"/><path class="cls-1" d="M423.14,343.31c.07.05-.63,1.07-1.59,2.81a40.82,40.82,0,0,0-3.09,7.08,40.35,40.35,0,0,0-1.65,7.55c-.23,2-.27,3.21-.36,3.21a2.78,2.78,0,0,1-.08-.87,20.69,20.69,0,0,1,.06-2.37,33.29,33.29,0,0,1,4.79-14.79,19.57,19.57,0,0,1,1.34-2C422.9,343.52,423.1,343.29,423.14,343.31Z" transform="translate(-30.4 -30.4)"/><path class="cls-1" d="M412.13,337.41c-.08,0-.31-.77-.95-1.92a15.55,15.55,0,0,0-3.24-4,37,37,0,0,0-4.14-3.11,9.93,9.93,0,0,1-1.74-1.29,8.5,8.5,0,0,1,1.95,1,26.44,26.44,0,0,1,4.29,3,13.34,13.34,0,0,1,3.21,4.18A4.79,4.79,0,0,1,412.13,337.41Z" transform="translate(-30.4 -30.4)"/><path class="cls-1" d="M410.45,292.15c-.08,0-.73-1.2-2-3.1a46.65,46.65,0,0,0-12.11-12.73c-1.83-1.32-3-2-3-2.12a3.62,3.62,0,0,1,.9.42A24.83,24.83,0,0,1,396.6,276a39.71,39.71,0,0,1,12.21,12.84c.58,1,1,1.8,1.28,2.38A3.49,3.49,0,0,1,410.45,292.15Z" transform="translate(-30.4 -30.4)"/><path class="cls-1" d="M449.34,231.07a3.11,3.11,0,0,1-.62.3l-1.8.78c-1.57.67-3.86,1.61-6.58,3a39.55,39.55,0,0,0-8.87,5.86,45,45,0,0,0-8.14,10.15,125.37,125.37,0,0,0-6,11.62l-4.6,9.69L409.56,279c-.36.72-.66,1.3-.88,1.76a2.92,2.92,0,0,1-.34.59,3.82,3.82,0,0,1,.24-.64c.2-.46.46-1.06.79-1.8l3-6.59,4.49-9.74a119.09,119.09,0,0,1,6-11.69,44.17,44.17,0,0,1,8.27-10.24,39.25,39.25,0,0,1,9-5.84c2.76-1.32,5.07-2.21,6.67-2.83l1.84-.68A3,3,0,0,1,449.34,231.07Z" transform="translate(-30.4 -30.4)"/><path class="cls-1" d="M412.94,211a7.63,7.63,0,0,1,.81,1.36c.49.89,1.15,2.21,1.91,3.87a89.69,89.69,0,0,1,7.58,27.36c.2,1.81.31,3.29.35,4.3a8.82,8.82,0,0,1,0,1.59,9.15,9.15,0,0,1-.22-1.57c-.1-1-.28-2.47-.52-4.27A106.85,106.85,0,0,0,420,229.73a108.1,108.1,0,0,0-4.71-13.37c-.71-1.66-1.32-3-1.75-3.93A9.76,9.76,0,0,1,412.94,211Z" transform="translate(-30.4 -30.4)"/><path class="cls-1" d="M447.58,183.36a3.9,3.9,0,0,1-.3.57l-.95,1.58c-.83,1.37-2.07,3.33-3.51,5.8-2.93,4.91-6.85,11.79-10.57,19.68-1.84,4-3.46,7.79-4.77,11.33s-2.3,6.8-3,9.56-1.16,5-1.46,6.61c-.12.75-.23,1.35-.31,1.82a2.68,2.68,0,0,1-.14.63,2.67,2.67,0,0,1,0-.65c.05-.41.1-1,.22-1.83.23-1.59.61-3.88,1.29-6.67a100.66,100.66,0,0,1,2.93-9.64c1.29-3.57,2.9-7.42,4.75-11.39a199.45,199.45,0,0,1,10.73-19.65c1.49-2.45,2.78-4.38,3.66-5.71l1-1.53A2.39,2.39,0,0,1,447.58,183.36Z" transform="translate(-30.4 -30.4)"/><rect class="cls-1" x="350.83" y="10.32" width="83.14" height="86.66"/><rect class="cls-4" x="345.2" y="10.32" width="83.14" height="86.66"/><path class="cls-1" d="M458.76,127.41H375.57V40.7h83.19Zm-83.13,0h83.08V40.75H375.63Z" transform="translate(-30.4 -30.4)"/><rect class="cls-4" x="356.38" y="21.97" width="60.78" height="63.36"/><path class="cls-1" d="M386.78,116.16a11.15,11.15,0,0,1-1.5,1.74c-1,1-2.34,2.41-3.87,3.92s-2.93,2.84-4,3.8a9.62,9.62,0,0,1-1.76,1.46,10.49,10.49,0,0,1,1.5-1.74c1-1,2.34-2.41,3.87-3.92s2.94-2.86,4-3.81A8.93,8.93,0,0,1,386.78,116.16Z" transform="translate(-30.4 -30.4)"/><path class="cls-1" d="M447.56,116a9.62,9.62,0,0,1,1.74,1.5c1,1,2.42,2.33,3.92,3.86s2.85,2.94,3.8,4a9.87,9.87,0,0,1,1.47,1.76,9.26,9.26,0,0,1-1.74-1.49c-1-1-2.42-2.34-3.93-3.87s-2.85-3-3.8-4A9.15,9.15,0,0,1,447.56,116Z" transform="translate(-30.4 -30.4)"/><path class="cls-1" d="M447.39,52.54a10.16,10.16,0,0,1,1.5-1.74c1-1,2.34-2.41,3.87-3.92s2.93-2.85,4-3.8a9.12,9.12,0,0,1,1.76-1.46,10.24,10.24,0,0,1-1.5,1.73c-1,1-2.33,2.42-3.87,3.93s-2.94,2.85-4,3.8A8.8,8.8,0,0,1,447.39,52.54Z" transform="translate(-30.4 -30.4)"/><path class="cls-1" d="M386.61,52.7a10.16,10.16,0,0,1-1.74-1.5c-1-1-2.41-2.34-3.92-3.87s-2.85-2.93-3.8-4a8.78,8.78,0,0,1-1.46-1.76,10.24,10.24,0,0,1,1.73,1.5c1,1,2.42,2.34,3.93,3.87s2.85,2.94,3.8,4A8.8,8.8,0,0,1,386.61,52.7Z" transform="translate(-30.4 -30.4)"/><path class="cls-1" d="M447.39,115.73s0-.1,0-.3,0-.51,0-.89c0-.79,0-1.94,0-3.42,0-3,0-7.37-.06-12.91,0-11.1-.07-26.91-.12-45.84l.23.24-60.61,0h0l.27-.27c0,23.26,0,45,0,63.36l-.23-.23,43.89.12,12.33.06,3.26,0h1.13a1.1,1.1,0,0,1-.26,0h-.82l-3.22,0-12.28.06-44,.11h-.23v-.24c0-18.34,0-40.1,0-63.36V52.1h.27l60.61,0h.24v.23c-.05,19-.09,34.85-.12,46,0,5.52-.05,9.87-.06,12.86,0,1.46,0,2.59,0,3.37,0,.37,0,.65,0,.86A1.32,1.32,0,0,1,447.39,115.73Z" transform="translate(-30.4 -30.4)"/><path class="cls-1" d="M419,77.24A10.86,10.86,0,0,0,399.9,79a12.55,12.55,0,0,0,.15,9.59A17.3,17.3,0,0,0,406.33,96c7.11,4.84,17.42,4.62,24-.89a13.17,13.17,0,0,0,4.87-8,10,10,0,0,0-14.73-10.09" transform="translate(-30.4 -30.4)"/><path class="cls-2" d="M419,77.22a3.77,3.77,0,0,0-4-2.77l2.37,2.83a3.7,3.7,0,0,0-2.92,2.29c-.11.29-.14.7.13.85a.76.76,0,0,0,.6-.07L418,79.16a9.85,9.85,0,0,0,1.72,4.48,11.72,11.72,0,0,0,1.09-4.51L424,80.54a4.78,4.78,0,0,0-1.5-2.36,8.07,8.07,0,0,0,2.67-1c.25-.15.52-.42.41-.69s-.35-.26-.57-.28A10.57,10.57,0,0,0,419,77.43" transform="translate(-30.4 -30.4)"/><path class="cls-2" d="M418.76,78.41a20.7,20.7,0,0,0-.79-9.63c.76-.17,1.7-.29,2.19.32a2,2,0,0,1,.32,1.28,22.54,22.54,0,0,1-1.7,8.89" transform="translate(-30.4 -30.4)"/><path class="cls-5" d="M403.26,90a3,3,0,0,1-.5-.5,9.43,9.43,0,0,1-1.07-1.61,9.86,9.86,0,0,1,1.95-11.78,9,9,0,0,1,1.53-1.17,2.54,2.54,0,0,1,.63-.32,20.68,20.68,0,0,0-2,1.67,10,10,0,0,0-1.9,11.49A23.31,23.31,0,0,0,403.26,90Z" transform="translate(-30.4 -30.4)"/><path class="cls-5" d="M406.47,92.41c0,.09-.54,0-1.05-.39s-.78-.8-.7-.86.44.25.9.58S406.5,92.32,406.47,92.41Z" transform="translate(-30.4 -30.4)"/></g><g id="Speech_Bubbles" data-name="Speech Bubbles"><polygon class="cls-5" points="114.31 49.02 102.16 31.68 121.92 40.35 120.81 13.93 136.24 31.24 148.98 10.57 155.14 34.05 174.45 31.81 161.63 52.12 182.6 65.44 156.31 61.02 155.44 82.46 137.4 67.99 118.44 83.91 120.73 63 96.9 61.09 114.31 49.02"/><path class="cls-6" d="M144.71,79.41s-.37.28-1.11.8l-3.34,2.35-12.9,9-.06-.22,23.84,1.87h.18l0,.18c-.68,6.26-1.44,13.32-2.26,20.91l-.33-.18,18.94-15.94.14-.11.14.11L186,112.67l-.39.18c.27-6.8.56-14,.86-21.45v-.28l.28,0L213,95.58l-.18.47L193,83.44l-1.11-.7-.22-.14.14-.22,12.82-20.31.24.39L185.56,64.7l-.21,0-.06-.21L179.15,41l.43.07q-6.66,10.78-12.75,20.65l-.16.26-.2-.22L151.06,44.46l.35-.14c.4,9.76.75,18.59,1.07,26.42V71l-.24-.11-19.74-8.71.14-.18,9,13L144,78.3c.51.74.75,1.11.75,1.11s-.29-.38-.82-1.12L141.54,75l-9.08-12.83-.25-.35.39.17,19.78,8.63-.23.16c-.34-7.83-.72-16.66-1.14-26.43l0-.56.37.42,15.45,17.3-.36,0q6.06-9.87,12.72-20.67l.3-.49.14.55,6.17,23.47-.27-.18L204.81,62l.54-.06-.29.45q-6.28,10-12.81,20.32l-.08-.36,1.11.7,19.86,12.62,1.08.68L213,96.09l-26.29-4.43.29-.23c-.3,7.41-.6,14.64-.88,21.44l0,.48-.37-.3-18-14.49h.28c-6.76,5.66-13.16,11-19,15.9l-.38.31,0-.49c.84-7.58,1.63-14.64,2.32-20.9l.16.19-23.83-2-.34,0,.28-.19,12.92-8.88,3.38-2.31Z" transform="translate(-30.4 -30.4)"/><path class="cls-6" d="M198.23,103.74s-.43.06-1.14.35a5.28,5.28,0,0,0-2.42,2.08,5,5,0,0,0-.75,2.07,4.4,4.4,0,0,0,.44,2.45,4.79,4.79,0,0,0,9-.53,4.36,4.36,0,0,0,.14-2.49,5,5,0,0,0-1-2,5.29,5.29,0,0,0-2.65-1.78,11.83,11.83,0,0,0-1.18-.22l.31,0a2.82,2.82,0,0,1,.39,0,4.39,4.39,0,0,1,.52.09,5.22,5.22,0,0,1,2.81,1.75,5.12,5.12,0,0,1,1.08,2.06,4.54,4.54,0,0,1-.12,2.67A5.52,5.52,0,0,1,202,112.7a5.15,5.15,0,0,1-2.93,1.22,5.1,5.1,0,0,1-3.05-.87,5.36,5.36,0,0,1-1.95-2.21,4.69,4.69,0,0,1-.44-2.64A5.43,5.43,0,0,1,197,104a3.47,3.47,0,0,1,.51-.15,1.48,1.48,0,0,1,.38-.06C198.12,103.73,198.23,103.72,198.23,103.74Z" transform="translate(-30.4 -30.4)"/><path class="cls-6" d="M210.91,116.34s-.27.06-.71.25a3.42,3.42,0,0,0-1.49,1.31,2.84,2.84,0,0,0-.18,2.79,3,3,0,0,0,5.53-.33,2.84,2.84,0,0,0-.51-2.75,3.34,3.34,0,0,0-1.63-1.12c-.46-.14-.74-.13-.74-.16a1.45,1.45,0,0,1,.77,0,3.37,3.37,0,0,1,1.81,1.09,3.47,3.47,0,0,1,.7,1.32,3.08,3.08,0,0,1-.07,1.72,3.29,3.29,0,0,1-6.17.36,3,3,0,0,1-.27-1.7,3.28,3.28,0,0,1,.54-1.38,3.23,3.23,0,0,1,1.66-1.3A1.64,1.64,0,0,1,210.91,116.34Z" transform="translate(-30.4 -30.4)"/><path class="cls-6" d="M163.76,68.26l.1,11a1.8,1.8,0,0,0,1.58,1.76h0a1.8,1.8,0,0,0,2-1.49l1.82-11A1.41,1.41,0,0,0,167.9,67l-2.68-.11A1.4,1.4,0,0,0,163.76,68.26Z" transform="translate(-30.4 -30.4)"/><path class="cls-6" d="M168,87.4a2.69,2.69,0,1,1-1.52-3.49A2.69,2.69,0,0,1,168,87.4Z" transform="translate(-30.4 -30.4)"/><path class="cls-6" d="M172.14,68.71l.1,11a1.79,1.79,0,0,0,1.59,1.76h0a1.78,1.78,0,0,0,2-1.48l1.82-11a1.39,1.39,0,0,0-1.32-1.63l-2.69-.11A1.4,1.4,0,0,0,172.14,68.71Z" transform="translate(-30.4 -30.4)"/><path class="cls-6" d="M176.41,87.86a2.69,2.69,0,1,1-1.52-3.49A2.69,2.69,0,0,1,176.41,87.86Z" transform="translate(-30.4 -30.4)"/><polygon class="cls-5" points="308.63 57.39 317.75 44.38 302.92 50.89 303.74 31.05 292.16 44.05 282.6 28.53 277.97 46.16 263.48 44.47 273.1 59.72 257.35 69.72 277.09 66.4 277.75 82.5 291.29 71.64 305.52 83.59 303.81 67.89 321.7 66.45 308.63 57.39"/><path class="cls-6" d="M339,87.79l.9.59,2.55,1.73,9.7,6.64.28.19-.34,0-17.89,1.49.15-.19c.53,4.7,1.12,10,1.75,15.7l.06.49-.38-.32-14.25-11.93h.28l-13.54,10.88-.37.3,0-.48c-.21-5.1-.43-10.53-.66-16.1l.29.24-19.74,3.32-1.26.22,1.08-.69,14.92-9.47.83-.53-.08.36C300,85.09,296.8,80,293.66,75l-.29-.46.54.06L308.4,76.3l-.27.19,4.63-17.62.14-.55.3.48,9.55,15.53-.36,0,11.6-13,.38-.42,0,.56c-.31,7.33-.6,14-.86,19.84l-.23-.16,14.85-6.46.39-.17-.24.35-6.83,9.61-1.77,2.48-.63.85.56-.84,1.72-2.49,6.75-9.75.15.18-14.82,6.55-.24.1v-.26c.23-5.88.5-12.51.79-19.84l.35.14-11.56,13-.2.23-.16-.26-9.58-15.5.44-.07c-1.49,5.68-3,11.57-4.61,17.63l-.06.21-.22,0-14.49-1.68.24-.4L303.72,90l.13.22-.21.14-.84.53-14.91,9.47-.18-.48,19.74-3.31.28,0v.28c.22,5.57.44,11,.64,16.1l-.39-.17,13.56-10.86.15-.11.14.11,14.21,12-.32.18c-.62-5.7-1.19-11-1.69-15.7l0-.18h.17l17.9-1.39L352,97l-9.68-6.79-2.5-1.77C339.29,88,339,87.79,339,87.79Z" transform="translate(-30.4 -30.4)"/><path class="cls-6" d="M298.84,106.05s.32,0,.86.27a4.05,4.05,0,0,1,1.82,1.56,3.77,3.77,0,0,1,.56,1.55,3.37,3.37,0,0,1-.33,1.84,3.6,3.6,0,0,1-6.74-.4,3.32,3.32,0,0,1-.11-1.86,4,4,0,0,1,2.73-2.81c.56-.16.89-.14.89-.17a1.1,1.1,0,0,0-.24,0,1.62,1.62,0,0,0-.29,0,2,2,0,0,0-.38.06,4,4,0,0,0-2.93,2.86,3.56,3.56,0,0,0,.09,2,4.07,4.07,0,0,0,1.26,1.82,3.8,3.8,0,0,0,2.2.92,3.93,3.93,0,0,0,2.29-.65,4.09,4.09,0,0,0,1.46-1.67,3.49,3.49,0,0,0,.33-2,4,4,0,0,0-.63-1.63,3.9,3.9,0,0,0-1.94-1.55,1.73,1.73,0,0,0-.38-.11,1.19,1.19,0,0,0-.28,0Z" transform="translate(-30.4 -30.4)"/><path class="cls-6" d="M289.32,115.52s.2,0,.53.19a2.41,2.41,0,0,1,1.12,1,2.12,2.12,0,0,1,.14,2.09A2.38,2.38,0,0,1,289,120.1a2.34,2.34,0,0,1-2-1.56,2.12,2.12,0,0,1,.38-2.07,2.48,2.48,0,0,1,1.22-.84c.35-.1.56-.1.56-.13a1.3,1.3,0,0,0-.58,0,2.56,2.56,0,0,0-1.36.82,2.53,2.53,0,0,0-.52,1,2.28,2.28,0,0,0,0,1.29,2.62,2.62,0,0,0,2.22,1.76,2.58,2.58,0,0,0,2.41-1.49,2.2,2.2,0,0,0,.2-1.27,2.41,2.41,0,0,0-.4-1,2.52,2.52,0,0,0-1.25-1A1.25,1.25,0,0,0,289.32,115.52Z" transform="translate(-30.4 -30.4)"/><path class="cls-6" d="M324.72,79.41l-.07,8.29A1.34,1.34,0,0,1,323.46,89h0A1.35,1.35,0,0,1,322,87.91l-1.36-8.25a1.05,1.05,0,0,1,1-1.23l2-.08A1,1,0,0,1,324.72,79.41Z" transform="translate(-30.4 -30.4)"/><path class="cls-6" d="M321.52,93.79a2,2,0,1,0,1.14-2.62A2,2,0,0,0,321.52,93.79Z" transform="translate(-30.4 -30.4)"/><path class="cls-6" d="M318.43,79.76,318.35,88a1.32,1.32,0,0,1-1.19,1.32h0a1.32,1.32,0,0,1-1.47-1.11L314.32,80a1.06,1.06,0,0,1,1-1.23l2-.08A1.07,1.07,0,0,1,318.43,79.76Z" transform="translate(-30.4 -30.4)"/><path class="cls-6" d="M315.23,94.13a2,2,0,1,0,1.14-2.62A2,2,0,0,0,315.23,94.13Z" transform="translate(-30.4 -30.4)"/></g><g id="Floor"><path class="cls-6" d="M461.73,466c0,.15-94.81.26-211.74.26S38.22,466.13,38.22,466s94.8-.26,211.77-.26S461.73,465.84,461.73,466Z" transform="translate(-30.4 -30.4)"/></g><g id="Character"><rect class="cls-7" x="134.29" y="329.35" width="166.84" height="106"/><rect class="cls-7" x="111.91" y="326.32" width="203.74" height="37.2" rx="18.16"/><path class="cls-6" d="M331.75,393.42c0,.14-39,.26-87,.26s-87.05-.12-87.05-.26,39-.27,87.05-.27S331.75,393.27,331.75,393.42Z" transform="translate(-30.4 -30.4)"/><path class="cls-6" d="M187,466.6c-.14,0-.26-16.16-.26-36.09s.12-36.09.26-36.09.26,16.15.26,36.09S187.12,466.6,187,466.6Z" transform="translate(-30.4 -30.4)"/><path class="cls-6" d="M292.43,378.91a26.57,26.57,0,0,1-.65-2.74,37.65,37.65,0,0,0-2.16-6.41,36.84,36.84,0,0,0-3.3-5.89,26.79,26.79,0,0,1-1.59-2.33,10.5,10.5,0,0,1,1.89,2.11,29.8,29.8,0,0,1,3.48,5.9,30.57,30.57,0,0,1,2,6.54A11,11,0,0,1,292.43,378.91Z" transform="translate(-30.4 -30.4)"/><path class="cls-6" d="M301.39,373.35c-.09,0-.46-1.07-1.35-2.68a20.81,20.81,0,0,0-4.49-5.54,21.09,21.09,0,0,0-6.11-3.67c-1.72-.65-2.86-.86-2.84-1a2.61,2.61,0,0,1,.81.07,14.17,14.17,0,0,1,2.15.54,18.87,18.87,0,0,1,10.81,9.39,13.09,13.09,0,0,1,.83,2.06A2.43,2.43,0,0,1,301.39,373.35Z" transform="translate(-30.4 -30.4)"/><polygon class="cls-8" points="192.68 136.96 167.79 141 165.97 191.19 165.97 290.32 277.88 290.32 277.88 174.1 263.35 141 192.68 136.96"/><path class="cls-8" d="M198.19,171.4s-20.15,9.71-23.57,31.43-12.44,45.88-14.15,50.76-7.32,25.13,1.22,33.43,12.2,7.56,17.57,6.83,15.05-8.91,19.26-13.17c5.07-5.14,2.36-14,2.36-14Z" transform="translate(-30.4 -30.4)"/><path class="cls-8" d="M293.74,171.4s14.53,3.23,21.35,13.66c5.91,9,14.23,37.13,14.23,37.13s13.15,36,11.54,46.35-15.83,23.8-24.48,17.89c-7.74-5.3-13.93-10-17.31-14.06a11.65,11.65,0,0,1-1.8-6.42l3.52-50.84Z" transform="translate(-30.4 -30.4)"/><path class="cls-6" d="M167.43,260.42a5.23,5.23,0,0,1-1.22-2.74,12,12,0,0,1,.73-7.19,9.8,9.8,0,0,1,2.3-3.32,4.89,4.89,0,0,1,3.08-1.21,6.78,6.78,0,0,1,2.2.3,2.61,2.61,0,0,1,.75.3,17.73,17.73,0,0,0-2.93-.23,4.58,4.58,0,0,0-2.79,1.2,10,10,0,0,0-2.14,3.18,12.53,12.53,0,0,0-.83,6.91A12.85,12.85,0,0,0,167.43,260.42Z" transform="translate(-30.4 -30.4)"/><path class="cls-6" d="M200.2,219.94a79.68,79.68,0,0,1,0-9.26,80.77,80.77,0,0,1,.57-9.25,84,84,0,0,1-.05,9.26A85.22,85.22,0,0,1,200.2,219.94Z" transform="translate(-30.4 -30.4)"/><path class="cls-6" d="M168.91,247.65c0,.15-1,0-2.16.23s-2,.73-2.07.61.68-.87,2-1.13A2.7,2.7,0,0,1,168.91,247.65Z" transform="translate(-30.4 -30.4)"/><path class="cls-6" d="M297.85,210.7a18.23,18.23,0,0,1-.47-2.82c-.25-1.74-.62-4.14-1.13-6.77s-1.08-5-1.51-6.7a18.33,18.33,0,0,1-.63-2.79,12.87,12.87,0,0,1,1,2.69,68.13,68.13,0,0,1,1.66,6.7,65.16,65.16,0,0,1,1,6.83A14.15,14.15,0,0,1,297.85,210.7Z" transform="translate(-30.4 -30.4)"/><path class="cls-6" d="M277.72,274.31a4.29,4.29,0,0,1-.4.48l-1.22,1.31c-.52.57-1.18,1.25-2,2s-1.69,1.65-2.75,2.55-2.18,1.93-3.47,2.93-2.67,2.07-4.15,3.16A102.53,102.53,0,0,1,253.59,293a100.18,100.18,0,0,1-10.9,4.91c-1.73.61-3.37,1.22-4.94,1.67s-3,.9-4.37,1.24-2.58.61-3.65.84-2,.41-2.78.53l-1.77.27a3.18,3.18,0,0,1-.62.06,2.59,2.59,0,0,1,.61-.17l1.74-.36c.76-.15,1.69-.34,2.76-.61s2.29-.52,3.61-.92,2.8-.77,4.34-1.29,3.18-1.09,4.9-1.71a96,96,0,0,0,21-11.14c1.48-1.07,2.9-2.07,4.16-3.1s2.45-2,3.5-2.86,2-1.76,2.78-2.49,1.5-1.4,2-1.94l1.28-1.25C277.54,274.43,277.7,274.29,277.72,274.31Z" transform="translate(-30.4 -30.4)"/><g class="cls-9"><path d="M324.39,258.19c0,1.23.25,1.67,1,1.92a2.31,2.31,0,0,0,1.79-.6,9.28,9.28,0,0,0,2.53-5.91,21.42,21.42,0,0,0-2.53-12.77,14.9,14.9,0,0,1,0,7.66Z" transform="translate(-30.4 -30.4)"/></g><g class="cls-9"><path d="M172.26,267.38c-1.09-3-3.91-5-5.37-7.87-1.73-3.36-.39-9,2-11.86-3.42,2.17-4,7.14-4.13,10.86a15.33,15.33,0,0,0,3.42,10.38,4.6,4.6,0,0,0,1.82,1.4,2,2,0,0,0,2.12-.47A2.53,2.53,0,0,0,172.26,267.38Z" transform="translate(-30.4 -30.4)"/></g><path class="cls-5" d="M188.7,210.54a42.56,42.56,0,0,1-4-5.17,40.77,40.77,0,0,1-3.58-5.48,42.56,42.56,0,0,1,4,5.17A40.3,40.3,0,0,1,188.7,210.54Z" transform="translate(-30.4 -30.4)"/><path class="cls-5" d="M181.44,231.78a28,28,0,0,1-4.41,3.06,27.11,27.11,0,0,1-4.69,2.61,28.42,28.42,0,0,1,4.42-3.06A28.55,28.55,0,0,1,181.44,231.78Z" transform="translate(-30.4 -30.4)"/><path class="cls-5" d="M202.08,239.25a34.08,34.08,0,0,1-4.42-3.91,34.36,34.36,0,0,1-4.06-4.27A32.63,32.63,0,0,1,198,235,34,34,0,0,1,202.08,239.25Z" transform="translate(-30.4 -30.4)"/><path class="cls-5" d="M171,263.71a22.49,22.49,0,0,1,1.56-6.6,11,11,0,0,1-.53,3.36A11.1,11.1,0,0,1,171,263.71Z" transform="translate(-30.4 -30.4)"/><path class="cls-5" d="M168.49,281.63c-.12.1-2.15-2.29-4.93-5s-5.22-4.64-5.13-4.77a7.8,7.8,0,0,1,1.73,1.14,43.23,43.23,0,0,1,7.14,6.91A7.63,7.63,0,0,1,168.49,281.63Z" transform="translate(-30.4 -30.4)"/><path class="cls-5" d="M181,277.51a44.37,44.37,0,0,1-3.08,5.93,43.72,43.72,0,0,1-3.54,5.68,43.64,43.64,0,0,1,3.08-5.93A42.48,42.48,0,0,1,181,277.51Z" transform="translate(-30.4 -30.4)"/><path class="cls-5" d="M193,277.86c-.11.1-1.63-1.56-3.71-3.37s-3.91-3.1-3.83-3.23a15,15,0,0,1,4.18,2.84A14.66,14.66,0,0,1,193,277.86Z" transform="translate(-30.4 -30.4)"/><path class="cls-5" d="M199.2,185.09a34.91,34.91,0,0,1-3.38,5,35.64,35.64,0,0,1-3.79,4.73,35.17,35.17,0,0,1,3.37-5A35.6,35.6,0,0,1,199.2,185.09Z" transform="translate(-30.4 -30.4)"/><path class="cls-5" d="M214.38,184.52a43.35,43.35,0,0,1-4.45-5,43.56,43.56,0,0,1-4-5.35,44.41,44.41,0,0,1,4.45,5A44.46,44.46,0,0,1,214.38,184.52Z" transform="translate(-30.4 -30.4)"/><path class="cls-5" d="M216.38,217a24.5,24.5,0,0,1-3.4-5.3,25.08,25.08,0,0,1-2.44-5.8c.14,0,1.29,2.51,2.9,5.56S216.5,216.94,216.38,217Z" transform="translate(-30.4 -30.4)"/><path class="cls-5" d="M236.06,206.51a45.23,45.23,0,0,1-6.67-2.15,48.44,48.44,0,0,1-6.5-2.63,45.84,45.84,0,0,1,6.67,2.14A49.21,49.21,0,0,1,236.06,206.51Z" transform="translate(-30.4 -30.4)"/><path class="cls-5" d="M239.53,181.1c.07.13-1.62,1.2-3.54,2.73s-3.35,2.94-3.46,2.83a12.13,12.13,0,0,1,3.14-3.23A12,12,0,0,1,239.53,181.1Z" transform="translate(-30.4 -30.4)"/><path class="cls-5" d="M228.42,241.11a56.63,56.63,0,0,1-1.38-7.5,57.14,57.14,0,0,1-.87-7.58,55.61,55.61,0,0,1,1.39,7.5A54,54,0,0,1,228.42,241.11Z" transform="translate(-30.4 -30.4)"/><path class="cls-5" d="M225.08,256.77a50.35,50.35,0,0,1-6.43-3.54,52.39,52.39,0,0,1-6.15-4,50.66,50.66,0,0,1,6.42,3.54A52.61,52.61,0,0,1,225.08,256.77Z" transform="translate(-30.4 -30.4)"/><path class="cls-5" d="M211.17,277.57a30.23,30.23,0,0,1-2-5.25,31.22,31.22,0,0,1-1.51-5.42,30.23,30.23,0,0,1,2,5.25A31.22,31.22,0,0,1,211.17,277.57Z" transform="translate(-30.4 -30.4)"/><path class="cls-5" d="M218.46,298.29a42.77,42.77,0,0,1-6.07-3,44.63,44.63,0,0,1-5.81-3.43,43,43,0,0,1,6.06,3A44.72,44.72,0,0,1,218.46,298.29Z" transform="translate(-30.4 -30.4)"/><path class="cls-5" d="M239.36,272.77a80.71,80.71,0,0,1-3.06,8.58,79,79,0,0,1-3.55,8.39,82.53,82.53,0,0,1,3.06-8.58A80.11,80.11,0,0,1,239.36,272.77Z" transform="translate(-30.4 -30.4)"/><path class="cls-5" d="M254.91,260.9c-.12.12-2.68-2.49-6.43-4.91s-7.14-3.75-7.08-3.9a8.61,8.61,0,0,1,2.27.75,32.29,32.29,0,0,1,9.63,6.28A8.85,8.85,0,0,1,254.91,260.9Z" transform="translate(-30.4 -30.4)"/><path class="cls-5" d="M269.08,236.4a38.26,38.26,0,0,1-4.06,4.73,38.13,38.13,0,0,1-4.44,4.37,37,37,0,0,1,4.06-4.73A36.39,36.39,0,0,1,269.08,236.4Z" transform="translate(-30.4 -30.4)"/><path class="cls-5" d="M254.91,233.24c-.16,0-.62-2.61-1.85-5.64s-2.68-5.27-2.55-5.36a15.82,15.82,0,0,1,3,5.16A15.62,15.62,0,0,1,254.91,233.24Z" transform="translate(-30.4 -30.4)"/><path class="cls-5" d="M261.23,198.7c.11.1-1.88,2.53-4.09,5.71s-3.82,5.88-3.95,5.8a7.44,7.44,0,0,1,.88-1.87,48.74,48.74,0,0,1,5.7-8.17A7.14,7.14,0,0,1,261.23,198.7Z" transform="translate(-30.4 -30.4)"/><path class="cls-5" d="M256.89,189.51a31.78,31.78,0,0,1-2.74-5.08,31.67,31.67,0,0,1-2.26-5.3,32.25,32.25,0,0,1,2.73,5.08A32.28,32.28,0,0,1,256.89,189.51Z" transform="translate(-30.4 -30.4)"/><path class="cls-5" d="M286.75,250.64a38,38,0,0,1-4.59,4.23,36.53,36.53,0,0,1-4.93,3.83,39.94,39.94,0,0,1,4.59-4.23A37.27,37.27,0,0,1,286.75,250.64Z" transform="translate(-30.4 -30.4)"/><path class="cls-5" d="M281.31,224.44a34.65,34.65,0,0,1-5.9-1.64,35.88,35.88,0,0,1-5.73-2.13,36.14,36.14,0,0,1,5.89,1.64A37,37,0,0,1,281.31,224.44Z" transform="translate(-30.4 -30.4)"/><path class="cls-5" d="M285,208.71a46,46,0,0,1,3.07-6.1,45.27,45.27,0,0,1,3.53-5.85,44.56,44.56,0,0,1-3.07,6.1A44,44,0,0,1,285,208.71Z" transform="translate(-30.4 -30.4)"/><path class="cls-5" d="M298.31,180.9a72.72,72.72,0,0,1-8.56-1.5,72,72,0,0,1-8.46-2,71.34,71.34,0,0,1,8.56,1.49A73.18,73.18,0,0,1,298.31,180.9Z" transform="translate(-30.4 -30.4)"/><path class="cls-5" d="M304.56,194.27a38.56,38.56,0,0,1,2.51-5.89,38.62,38.62,0,0,1,3-5.66,40,40,0,0,1-2.52,5.88A40.38,40.38,0,0,1,304.56,194.27Z" transform="translate(-30.4 -30.4)"/><path class="cls-5" d="M318.29,217.63a59.45,59.45,0,0,1-5.83-5.16,58.52,58.52,0,0,1-5.46-5.54,58.23,58.23,0,0,1,5.82,5.16A58.06,58.06,0,0,1,318.29,217.63Z" transform="translate(-30.4 -30.4)"/><path class="cls-5" d="M315.86,238.25a33.87,33.87,0,0,1,3.57-4.72,32.76,32.76,0,0,1,4-4.39,34.56,34.56,0,0,1-3.57,4.72A33.54,33.54,0,0,1,315.86,238.25Z" transform="translate(-30.4 -30.4)"/><path class="cls-5" d="M296.77,282a63.87,63.87,0,0,1,3.22-7.5,64.9,64.9,0,0,1,3.69-7.28,63.87,63.87,0,0,1-3.22,7.5A64.9,64.9,0,0,1,296.77,282Z" transform="translate(-30.4 -30.4)"/><path class="cls-5" d="M289.1,295.18a62.75,62.75,0,0,1-4.93-6.6,66.68,66.68,0,0,1-4.5-6.91,66.76,66.76,0,0,1,4.93,6.61A68,68,0,0,1,289.1,295.18Z" transform="translate(-30.4 -30.4)"/><path class="cls-5" d="M269.64,304.24a36.38,36.38,0,0,1-2.59,5.62,37.7,37.7,0,0,1-3.05,5.39,36.22,36.22,0,0,1,2.59-5.63A39.09,39.09,0,0,1,269.64,304.24Z" transform="translate(-30.4 -30.4)"/><path class="cls-5" d="M252.35,317.81a87.7,87.7,0,0,1-8.17-11,47.43,47.43,0,0,1,4.29,5.35A45,45,0,0,1,252.35,317.81Z" transform="translate(-30.4 -30.4)"/><path class="cls-5" d="M215.91,315.91a31.54,31.54,0,0,1-3.52-4.39,30.1,30.1,0,0,1-3.1-4.71,32,32,0,0,1,3.52,4.4A30.31,30.31,0,0,1,215.91,315.91Z" transform="translate(-30.4 -30.4)"/><path class="cls-5" d="M262.49,285.72c-.15,0-.27-2-.81-4.28s-1.27-4.13-1.13-4.2a10.68,10.68,0,0,1,1.64,4.09A10.51,10.51,0,0,1,262.49,285.72Z" transform="translate(-30.4 -30.4)"/><path class="cls-5" d="M260.57,299.55a9.44,9.44,0,0,1,0-4.4,9.44,9.44,0,0,1,0,4.4Z" transform="translate(-30.4 -30.4)"/><path class="cls-5" d="M328.76,274.09c-.08.13-2.15-1-4.84-2.12s-4.94-1.82-4.9-2a16.35,16.35,0,0,1,5.1,1.48A16.53,16.53,0,0,1,328.76,274.09Z" transform="translate(-30.4 -30.4)"/><path class="cls-5" d="M338.5,253.66a9.44,9.44,0,0,1-4.4,0,9.44,9.44,0,0,1,4.4,0Z" transform="translate(-30.4 -30.4)"/><g class="cls-9"><path d="M268.86,178.16c-3.67,6-4.42,13.34-3.48,20.27s3.44,13.53,5.93,20.06q8.6,22.6,17.2,45.2c1.66,4.39,3.39,8.87,6.45,12.43a15.13,15.13,0,0,0,13.31,4.66c-4.1-3.94-10-9.47-10.25-10.11-1.16-3.65-.25-10-.76-13.77-.78-5.82-4.53-11.8-7.05-17.1q-9-19-18.07-37.94c-2.09-4.4-4.22-9.46-2.38-14,.79-1.93,2.28-3.61,2.6-5.67s-1.54-4.61-3.46-3.79" transform="translate(-30.4 -30.4)"/></g><g class="cls-9"><path d="M196.37,291.1c7.28-2.51,10.14-11.05,13.19-18.12q12.28-28.46,24.58-56.9c1.7-4,3.43-8,3.72-12.28s-1.14-8.94-4.64-11.43c-11.13,14.07-22.23,28.35-30.1,44.47-5.54,11.34-4.47,21.18-1.25,32.27,1.89,6.51-5.5,12.82-5.5,13.74,0,4,0,6.16,0,8.25" transform="translate(-30.4 -30.4)"/></g><path class="cls-6" d="M222.72,144.9c-2.05-6.64-4.07-13.33-4.94-20.23s-.55-14.06,2-20.54c.38-1,3.61-7.55,4.66-7.43.75.08-1.28,6.23-.91,6.89,3.52,6.26,4.39,13.74,3.7,20.9a94.12,94.12,0,0,1-4.48,20.41" transform="translate(-30.4 -30.4)"/><path class="cls-10" d="M261.1,184c.13-4.91.24-8.78.28-8.78s16.86-1.44,18.22-18.11c.66-8.05.66-24.75.49-39.85a31.16,31.16,0,0,0-29-30.72l-1.61-.11c-17.43-.19-27.32,14.51-27,31.94l-.9,61,27.25,23.27Z" transform="translate(-30.4 -30.4)"/><path class="cls-11" d="M261.5,175.23a40.38,40.38,0,0,1-21.28-7.93s4.46,12.5,21.21,12.15Z" transform="translate(-30.4 -30.4)"/><path class="cls-6" d="M272.72,129.73a2.38,2.38,0,0,1-2.46,2.24,2.28,2.28,0,0,1-2.31-2.31,2.4,2.4,0,0,1,2.46-2.25A2.28,2.28,0,0,1,272.72,129.73Z" transform="translate(-30.4 -30.4)"/><path class="cls-6" d="M276,124c-.31.29-2-1.17-4.59-1.34s-4.53,1-4.79.64c-.13-.14.21-.68,1.07-1.22a6.61,6.61,0,0,1,3.86-.91,6.26,6.26,0,0,1,3.63,1.46C276,123.24,276.2,123.82,276,124Z" transform="translate(-30.4 -30.4)"/><path class="cls-6" d="M248.79,129.22a2.38,2.38,0,0,1-2.46,2.25,2.29,2.29,0,0,1-2.31-2.32,2.39,2.39,0,0,1,2.46-2.24A2.28,2.28,0,0,1,248.79,129.22Z" transform="translate(-30.4 -30.4)"/><path class="cls-6" d="M250.86,123.25c-.32.29-2-1.17-4.6-1.34s-4.53,1-4.78.65c-.13-.15.21-.69,1.07-1.23a6.52,6.52,0,0,1,3.86-.9,6.32,6.32,0,0,1,3.63,1.45C250.78,122.54,251,123.12,250.86,123.25Z" transform="translate(-30.4 -30.4)"/><path class="cls-6" d="M258.69,143.58c0-.14,1.62-.31,4.22-.46.66,0,1.29-.11,1.43-.55a3.34,3.34,0,0,0-.3-2c-.51-1.63-1-3.33-1.59-5.12-2.2-7.28-3.75-13.25-3.45-13.34s2.31,5.75,4.51,13l1.51,5.15a3.84,3.84,0,0,1,.16,2.59,1.62,1.62,0,0,1-1.14.88,4.56,4.56,0,0,1-1.12.08C260.31,143.83,258.69,143.73,258.69,143.58Z" transform="translate(-30.4 -30.4)"/><path class="cls-6" d="M256.75,153.82c-.41.06-.67-2.71-3.23-4.47s-5.49-1.18-5.54-1.56c-.06-.17.61-.6,1.85-.75a7,7,0,0,1,4.62,1.15A6.06,6.06,0,0,1,257,152C257.19,153.1,256.94,153.82,256.75,153.82Z" transform="translate(-30.4 -30.4)"/><path class="cls-6" d="M239.65,116.93c0-.74,2.52-1.32,5.22-2.7s4.71-3,5.3-2.56c.27.22.1,1-.59,2a10.21,10.21,0,0,1-8,4C240.38,117.6,239.66,117.28,239.65,116.93Z" transform="translate(-30.4 -30.4)"/><path class="cls-6" d="M265.81,112c.68-.44,2.65.66,5.18,1.29s4.79.74,5.14,1.45c.15.34-.33.83-1.4,1.14a8.7,8.7,0,0,1-4.44-.08,8.56,8.56,0,0,1-3.87-2.12C265.66,112.85,265.51,112.19,265.81,112Z" transform="translate(-30.4 -30.4)"/><path class="cls-10" d="M223,130.82c-.27-.14-11.23-4.18-11.65,7.25s11.14,9.5,11.17,9.17S223,130.82,223,130.82Z" transform="translate(-30.4 -30.4)"/><path class="cls-11" d="M219.14,142.78s-.2.14-.55.28a2,2,0,0,1-1.49,0c-1.19-.49-2.13-2.44-2.11-4.5a6.55,6.55,0,0,1,.66-2.83,2.3,2.3,0,0,1,1.56-1.48,1,1,0,0,1,1.15.59c.14.33.06.55.12.58s.25-.19.18-.66a1.24,1.24,0,0,0-.42-.73,1.5,1.5,0,0,0-1.1-.34,2.8,2.8,0,0,0-2.14,1.7,6.73,6.73,0,0,0-.81,3.16c0,2.31,1.09,4.5,2.72,5a2.15,2.15,0,0,0,1.83-.23C219.11,143.06,219.18,142.81,219.14,142.78Z" transform="translate(-30.4 -30.4)"/><path class="cls-6" d="M273.22,98.12c1.88-1-3.5-7.12-8-9.31-6.78-3.31-17.23-5.53-23.61-3.91-7.69,1.95-14.14,5.56-18.17,12.4s-5.69,14.89-5.69,22.82c0,2.42.18,4.95,1.41,7,1.53,2.57,4.55,4.25,4.31,7.73a4.86,4.86,0,0,0,1.09,3.53c2,2.28,4.65.26,5.89-1.8,2.64-4.41,3.07-9.74,3.43-14.87.26-3.64.52-7.36-.41-10.89-.51-1.93-1.36-3.75-1.76-5.7a6.89,6.89,0,0,1,1-5.68,7.07,7.07,0,0,1,1-.92,11.94,11.94,0,0,1,11.89-1.91c6.38,2.45,17.28,6.17,20.21,4.06,4.22-3,5.27-5,5.27-5Z" transform="translate(-30.4 -30.4)"/><path class="cls-7" d="M259,86.05a7.35,7.35,0,0,1,1.93,1.69,17.75,17.75,0,0,1,3.52,5.15,10.31,10.31,0,0,1,.69,6.22,4.1,4.1,0,0,1-1.12,2.34c-.12-.06.36-.92.57-2.44a11.34,11.34,0,0,0-.87-5.81,23.18,23.18,0,0,0-3.21-5.08C259.51,86.89,258.89,86.13,259,86.05Z" transform="translate(-30.4 -30.4)"/><path class="cls-7" d="M266.76,91.75c.09,0,.43.51.66,1.51a8.69,8.69,0,0,1-1.92,7.5c-.69.77-1.25,1.08-1.31,1s1.67-1.87,2.37-4.73S266.53,91.81,266.76,91.75Z" transform="translate(-30.4 -30.4)"/><path class="cls-11" d="M251.12,132.6a4,4,0,0,1-1.47.82,10.88,10.88,0,0,1-8-.08,3.79,3.79,0,0,1-1.45-.85,18.73,18.73,0,0,0,5.44,1.13A19.21,19.21,0,0,0,251.12,132.6Z" transform="translate(-30.4 -30.4)"/><path class="cls-11" d="M247.86,135.66c0,.06-.37.31-1.09.52a6.72,6.72,0,0,1-2.94.15,6.94,6.94,0,0,1-2.73-1.08c-.62-.43-.91-.8-.87-.85a13.87,13.87,0,0,0,3.69,1.41A14.08,14.08,0,0,0,247.86,135.66Z" transform="translate(-30.4 -30.4)"/><path class="cls-11" d="M277.48,131.11s-.29.65-1.14,1.4a7.5,7.5,0,0,1-8.32,1,3.55,3.55,0,0,1-1.44-1.09c.05-.07.6.34,1.6.76a8,8,0,0,0,7.93-1C277,131.59,277.41,131.05,277.48,131.11Z" transform="translate(-30.4 -30.4)"/><path class="cls-10" d="M274.07,212.7c.36.54,19.72,48.81,29.3,56.75,9.05-8.34,24.79-21.83,10.13-35.25l-27.38-39.53Z" transform="translate(-30.4 -30.4)"/><path class="cls-10" d="M274.16,213.12c.43.51-3.9-10-5-14.41-.65-2.61-3.07-7.64-1.62-11.25a68.61,68.61,0,0,1,3.61-7.4l-6-5.05s-12.64-2.89-13.54-5,0-3.25,0-3.25l10.47,1.44s-14.62-8.48-10.11-14.08c0,0,7,5.45,12.11,6.46L272,164.9s1.44-.66,1.08-5.38-1.08-6.17-1.08-6.17-7-9.2-5.78-13.36l1.45-2.88,8.3,9.2,2.17,4.33s-.91-14.08,4.33-14.8l1.8,16.25-1.8,11.46a46,46,0,0,1,1.8,7.13c.36,2.89,1.81,23.64,1.81,23.64l3.42,5" transform="translate(-30.4 -30.4)"/><path class="cls-11" d="M289.52,199.27a3.9,3.9,0,0,1-.24-.31l-.67-.93c-.59-.85-1.46-2.07-2.58-3.66v0c-.25-3.09-.59-7.3-1-12.51-.2-2.6-.43-5.46-.67-8.54a33.31,33.31,0,0,0-2-9.67v-.09c.56-3.57,1.16-7.42,1.79-11.46v.05c-.57-5-1.19-10.5-1.83-16.24l.26.2a3.75,3.75,0,0,0-2.66,2.41,14.77,14.77,0,0,0-1.09,3.84,41.61,41.61,0,0,0-.37,8.31l.06,1.16-.52-1c-.68-1.34-1.42-2.83-2.17-4.33l0,.06-8.3-9.2.42-.06c-.46.9-.95,1.89-1.45,2.89l0,0a6.07,6.07,0,0,0,.29,3.4,20.87,20.87,0,0,0,1.42,3.36,47.46,47.46,0,0,0,4,6.36l0,0h0a17.69,17.69,0,0,1,.92,4.31,27.6,27.6,0,0,1,.24,3.86,9.11,9.11,0,0,1-.24,1.94,4.87,4.87,0,0,1-.33.95,1.93,1.93,0,0,1-.71.85l-.11.06-.13-.07L264,160.76l.07,0a23.47,23.47,0,0,1-6.49-2.72,53.54,53.54,0,0,1-5.72-3.8l.35,0a3.49,3.49,0,0,0-.81,2.12,5.26,5.26,0,0,0,.55,2.25,14.34,14.34,0,0,0,2.87,3.75,42,42,0,0,0,7.42,5.6l1,.59-1.14-.15-10.47-1.46.21-.08a2.77,2.77,0,0,0-.26,2.11,3.91,3.91,0,0,0,.36,1,2.79,2.79,0,0,0,.81.7,22,22,0,0,0,4.15,1.78c2.84,1,5.64,1.7,8.34,2.35h.05l0,0,5.94,5.06.12.1-.08.14a70.35,70.35,0,0,0-3.43,6.92c-1,2.22-.59,4.62-.08,6.67s1.3,3.95,1.72,5.75,1.07,3.36,1.57,4.79c1,2.84,1.84,5.05,2.4,6.57.27.75.48,1.32.6,1.71a3,3,0,0,1,.13.44.31.31,0,0,1,0,.13s0,0,0,0a13.8,13.8,0,0,0-.81-2.23c-.58-1.49-1.44-3.68-2.49-6.53-.52-1.42-1.09-3-1.62-4.79s-1.2-3.65-1.76-5.75a16.11,16.11,0,0,1-.57-3.32,7.6,7.6,0,0,1,.63-3.55,67.72,67.72,0,0,1,3.42-7l0,.23-6-5,.09,0c-2.73-.64-5.53-1.37-8.4-2.32a22.76,22.76,0,0,1-4.25-1.82,3,3,0,0,1-.94-.83,4.21,4.21,0,0,1-.43-1.18,3.16,3.16,0,0,1,.35-2.49l.06-.1.14,0,10.47,1.44-.15.44a42.44,42.44,0,0,1-7.52-5.66,14.53,14.53,0,0,1-3-3.89,5.46,5.46,0,0,1-.6-2.47,4,4,0,0,1,.92-2.43l.15-.18.2.14a52.92,52.92,0,0,0,5.66,3.76,23.22,23.22,0,0,0,6.34,2.65h0l0,0,7.92,4.36h-.23a1.5,1.5,0,0,0,.46-.6,4,4,0,0,0,.3-.84,9.26,9.26,0,0,0,.22-1.84,26.94,26.94,0,0,0-.24-3.78,18.17,18.17,0,0,0-.86-4.13l0,0a47.64,47.64,0,0,1-4.07-6.44,22.05,22.05,0,0,1-1.46-3.44,6.6,6.6,0,0,1-.28-3.71v0l1.45-2.89.17-.33.25.28,8.29,9.2,0,0v0l2.16,4.33-.46.13a41.23,41.23,0,0,1,.39-8.42,15.48,15.48,0,0,1,1.13-4,5.7,5.7,0,0,1,1.17-1.72,3.27,3.27,0,0,1,1.86-.95l.23,0,0,.24c.63,5.74,1.23,11.21,1.78,16.24v.06c-.65,4-1.26,7.89-1.83,11.46v-.09q.84,2.53,1.4,5a21.32,21.32,0,0,1,.42,2.43c.06.8.11,1.59.17,2.36.23,3.09.44,5.95.63,8.56.37,5.21.68,9.43.9,12.52l0,0,2.52,3.7.64,1A3.47,3.47,0,0,1,289.52,199.27Z" transform="translate(-30.4 -30.4)"/><path class="cls-11" d="M277,185.06a10,10,0,0,1-3.45-1.91,6.19,6.19,0,0,1-2.45-3.09,30.62,30.62,0,0,0,2.77,2.68A28.16,28.16,0,0,1,277,185.06Z" transform="translate(-30.4 -30.4)"/><path class="cls-11" d="M272.59,197.79a7.46,7.46,0,0,1-.53-2.13,19.76,19.76,0,0,1,1.13-10.43,7.09,7.09,0,0,1,1-2c.18.06-1.27,3.11-1.72,7.16S272.78,197.77,272.59,197.79Z" transform="translate(-30.4 -30.4)"/><path class="cls-11" d="M279.11,174.63a16.16,16.16,0,0,1-2.39-1.24,55.25,55.25,0,0,0-5.84-2.76,38.83,38.83,0,0,0-6.16-1.91,26.58,26.58,0,0,1-2.63-.57,9.8,9.8,0,0,1,2.7.2,30.27,30.27,0,0,1,6.28,1.79,39.62,39.62,0,0,1,5.83,2.93A12.19,12.19,0,0,1,279.11,174.63Z" transform="translate(-30.4 -30.4)"/><path class="cls-11" d="M282.31,169.39a5.45,5.45,0,0,1-1.69-.31,29.63,29.63,0,0,1-3.93-1.32,16.11,16.11,0,0,1-5-3c.09-.14,2.27,1.32,5.2,2.56S282.36,169.22,282.31,169.39Z" transform="translate(-30.4 -30.4)"/><path class="cls-11" d="M282.49,163.55a5.55,5.55,0,0,1-1-1.79,45.13,45.13,0,0,1-1.64-4.66c-.55-1.84-1-3.52-1.33-4.74a10.09,10.09,0,0,1-.48-2,6.33,6.33,0,0,1,.83,1.87c.42,1.19.93,2.86,1.48,4.7s1.06,3.5,1.49,4.68A16.07,16.07,0,0,1,282.49,163.55Z" transform="translate(-30.4 -30.4)"/><path class="cls-10" d="M228.17,209.18a11.66,11.66,0,0,0,6.22-8.88c.74-6.36,1.33-14.06,1.33-14.06a25.82,25.82,0,0,0,1.93-4c.29-1.19,16.65-10.36,16.65-10.36s.58-2.49-4.22-2.22-13.77,4.59-13.77,4.59l2.67-8a51.64,51.64,0,0,0,7.42-9.08,4.9,4.9,0,0,0-1.17-6.25l-.44-.35s0-2.82-1.52-3.41c0,0-12.58,7.11-13,8s5.92-9.62-2.08-11.84l-4.73,12.73-1.9,4.58h0s-.8,8.11-1.1,10.77-1.59,21.95-3.37,24.76" transform="translate(-30.4 -30.4)"/><path class="cls-11" d="M217.07,196.16l.24-.6a12.42,12.42,0,0,0,.49-1.8c.35-1.61.71-4,1.06-7.11s.71-6.87,1.07-11.25.89-9.34,1.41-14.79v-.06l1.64-4c.56-1.37,1-2.8,1.6-4.25l3.36-9.08.08-.2.21.06a5.87,5.87,0,0,1,3,1.8,5.44,5.44,0,0,1,1.2,3.42,11.5,11.5,0,0,1-.56,3.62,15.79,15.79,0,0,1-.64,1.74c-.12.29-.25.57-.39.85l-.21.42-.12.21-.06.11,0,0,0,.06,0,0c-.32.2-.55-.54-.42-.25l0-.05a3.06,3.06,0,0,1,.77-.73l.78-.53q.78-.53,1.59-1c1.07-.66,2.16-1.32,3.26-2q3.3-2,6.74-3.9l.11-.07.12.05a2.54,2.54,0,0,1,1.31,1.6,6.69,6.69,0,0,1,.37,2l-.09-.2a6.06,6.06,0,0,1,1.61,1.72,5.22,5.22,0,0,1,.73,2.35,5,5,0,0,1-.26,1.93,8,8,0,0,1-.87,1.7,36.28,36.28,0,0,1-2.16,3,62.45,62.45,0,0,1-4.85,5.38l.06-.11q-1.35,4.07-2.67,8l-.35-.31a70.59,70.59,0,0,1,9.64-3.77,18.54,18.54,0,0,1,4.92-.85,6.31,6.31,0,0,1,2.46.42,2.37,2.37,0,0,1,1,.81,1.74,1.74,0,0,1,.29,1.3l0,.09-.1.06c-3.95,2.22-7.68,4.37-11.12,6.45-1.71,1.06-3.39,2.07-4.86,3.18a4.36,4.36,0,0,0-.5.44c-.08.11-.08.07-.13.23s-.07.23-.11.34a13,13,0,0,1-.56,1.26c-.4.82-.82,1.59-1.25,2.34l0-.07c-.39,3.93-.74,7.48-1,10.59-.08.78-.15,1.53-.23,2.25a17.11,17.11,0,0,1-.27,2.08,11.29,11.29,0,0,1-1.28,3.43,12,12,0,0,1-3.39,3.7,11,11,0,0,1-1.11.69,2.14,2.14,0,0,1-.41.18s.13-.07.38-.23a11.47,11.47,0,0,0,1.08-.73,12,12,0,0,0,3.28-3.71,11.31,11.31,0,0,0,1.22-3.38,20.74,20.74,0,0,0,.25-2.06c.06-.72.13-1.47.2-2.25.28-3.11.6-6.66,1-10.59v0l0,0c.42-.74.84-1.52,1.23-2.32.19-.4.38-.81.53-1.23,0-.11.08-.21.11-.32a.84.84,0,0,1,.2-.37,5,5,0,0,1,.55-.49c1.51-1.16,3.17-2.16,4.88-3.23,3.44-2.11,7.17-4.26,11.12-6.5l-.11.15a1.53,1.53,0,0,0-1.05-1.59,6,6,0,0,0-2.27-.36,17.8,17.8,0,0,0-4.78.84,69.5,69.5,0,0,0-9.56,3.75l-.53.25.18-.55,2.66-8,0-.06.05,0a61.25,61.25,0,0,0,4.8-5.33,32.62,32.62,0,0,0,2.13-3,7.44,7.44,0,0,0,.82-1.58,4.88,4.88,0,0,0,.23-1.74,4.67,4.67,0,0,0-.66-2.12,5.71,5.71,0,0,0-1.49-1.57l-.09-.07v-.13a6.57,6.57,0,0,0-.34-1.88,2.06,2.06,0,0,0-1-1.29h.23q-3.43,1.93-6.74,3.89c-1.1.65-2.19,1.3-3.26,2-.53.33-1.06.67-1.57,1l-.77.52a3.78,3.78,0,0,0-.6.52s-.06-.05-.15-.07a.13.13,0,0,1-.1,0l-.1-.09c-.1-.08-.08,0-.08,0h0l0,0,.06-.1.11-.19.2-.41c.14-.27.26-.55.38-.82a17.34,17.34,0,0,0,.63-1.7,10.91,10.91,0,0,0,.54-3.46,5,5,0,0,0-1.08-3.12,5.51,5.51,0,0,0-2.79-1.66l.29-.14q-1.77,4.69-3.39,9.07c-.56,1.44-1.06,2.88-1.62,4.24l-1.66,4,0-.06c-.55,5.46-1.14,10.41-1.49,14.78s-.77,8.16-1.17,11.25a69.62,69.62,0,0,1-1.17,7.1,11.64,11.64,0,0,1-.55,1.81C217.18,196,217.07,196.16,217.07,196.16Z" transform="translate(-30.4 -30.4)"/><path class="cls-11" d="M237.08,173.9a6.88,6.88,0,0,1-2.3,1.33,7,7,0,0,1-2.51.85,6.88,6.88,0,0,1,2.3-1.33A7,7,0,0,1,237.08,173.9Z" transform="translate(-30.4 -30.4)"/><path class="cls-11" d="M244.77,150.38a3.38,3.38,0,0,1-.4.93,17.13,17.13,0,0,1-1.5,2.32,52.66,52.66,0,0,1-6.3,6.56,21.73,21.73,0,0,0-5.23,7.21c-.94,2.11-1.29,3.51-1.38,3.48a3.49,3.49,0,0,1,.18-1,18.45,18.45,0,0,1,.86-2.63,20.31,20.31,0,0,1,5.21-7.45,67.48,67.48,0,0,0,6.37-6.4C244,151.62,244.69,150.33,244.77,150.38Z" transform="translate(-30.4 -30.4)"/><path class="cls-11" d="M230.45,154.94a8.31,8.31,0,0,1-1.19,2A20.38,20.38,0,0,0,228,159a13,13,0,0,0-1,2.81c-.73,2-1.06,3.93-1.44,5.31a6.88,6.88,0,0,1-.79,2.15,20.23,20.23,0,0,1,.43-2.24,37.66,37.66,0,0,1,1.3-5.37,11.82,11.82,0,0,1,1.07-2.89,14.69,14.69,0,0,1,1.38-2.08A13.89,13.89,0,0,1,230.45,154.94Z" transform="translate(-30.4 -30.4)"/><path class="cls-10" d="M174.07,247.84c.49-.74,14.14-14,18.07-18.36s23.71-29.52,24.93-33.32S229.53,207,229.53,207h0s-13.65,32.65-19,41.95-14.12,26.6-14.12,26.6-14.47,1.22-20.1-10.53S174.07,247.84,174.07,247.84Z" transform="translate(-30.4 -30.4)"/><path class="cls-8" d="M228.12,417.54l18.39,45-55.83,23.17c-1.88-5.47,22.56-28.16,22.56-28.16l-13-28.33Z" transform="translate(-30.4 -30.4)"/><g class="cls-12"><path class="cls-5" d="M229.49,447.93a2.46,2.46,0,0,1,2.66,1.95,2.37,2.37,0,0,1-1.91,2.64,2.59,2.59,0,0,1-2.8-2.07c-.07-1.21,1.08-2.66,2.29-2.54" transform="translate(-30.4 -30.4)"/></g><g class="cls-12"><path class="cls-5" d="M246.51,462.5l-2-4.46-52.77,23.88s-2,2.11-1,3.75Z" transform="translate(-30.4 -30.4)"/></g><path class="cls-6" d="M212.21,457.6c.13.27,1.54-.17,3.24.15s2.9,1.17,3.11.95-.86-1.61-2.93-2S212.05,457.38,212.21,457.6Z" transform="translate(-30.4 -30.4)"/><path class="cls-6" d="M207.36,462.45c0,.29,1.42.27,2.83,1s2.17,1.88,2.44,1.76-.2-1.74-2-2.66S207.26,462.19,207.36,462.45Z" transform="translate(-30.4 -30.4)"/><path class="cls-6" d="M206.94,470.84c.28,0,.09-1.56-1.23-2.77s-2.84-1.26-2.86-1,1.1.75,2.17,1.75S206.66,470.93,206.94,470.84Z" transform="translate(-30.4 -30.4)"/><path class="cls-6" d="M210,450.82c.22.2,1.32-.7,2.9-1.23s3-.55,3-.84-1.51-.79-3.37-.13S209.75,450.66,210,450.82Z" transform="translate(-30.4 -30.4)"/><path class="cls-6" d="M208.56,443.64c0,.12,1.19-.16,2.79-1.17a14.27,14.27,0,0,0,2.55-2.12,14.75,14.75,0,0,0,1.25-1.51,4,4,0,0,0,.57-1,1.26,1.26,0,0,0-.48-1.5,1.61,1.61,0,0,0-1.45-.13,4.17,4.17,0,0,0-1,.58,11.31,11.31,0,0,0-1.49,1.32,10.69,10.69,0,0,0-1.87,2.76c-.8,1.74-.82,2.94-.71,2.95s.44-1.07,1.35-2.61a11.92,11.92,0,0,1,1.91-2.44,10.79,10.79,0,0,1,1.4-1.16c.53-.4,1-.62,1.29-.42.09.08.12.12.07.34a3.39,3.39,0,0,1-.42.74,16.18,16.18,0,0,1-3.4,3.61C209.51,443,208.49,443.5,208.56,443.64Z" transform="translate(-30.4 -30.4)"/><path class="cls-6" d="M209.07,443.89c.12,0,.25-1.2-.38-3A9.85,9.85,0,0,0,207,438a10.52,10.52,0,0,0-1.42-1.41,2.53,2.53,0,0,0-2.37-.67,1.41,1.41,0,0,0-.84,1.27,4,4,0,0,0,.14,1.14,6.21,6.21,0,0,0,.78,1.88,6.84,6.84,0,0,0,2.39,2.4c1.69,1,3,.85,2.95.74a21.6,21.6,0,0,1-2.55-1.35,6.82,6.82,0,0,1-2-2.26,6.12,6.12,0,0,1-.62-1.63c-.16-.63-.14-1.2.11-1.24s.93.14,1.36.51a10.37,10.37,0,0,1,3,3.8C208.77,442.76,208.91,443.91,209.07,443.89Z" transform="translate(-30.4 -30.4)"/><path class="cls-8" d="M319.33,419.93l-1.53,48.55,60.4,2.22c-.14-5.79-31-18.52-31-18.52l2.26-31.07Z" transform="translate(-30.4 -30.4)"/><g class="cls-12"><path class="cls-5" d="M328.65,448.88a2.48,2.48,0,0,0-1.81,2.76,2.37,2.37,0,0,0,2.71,1.81,2.59,2.59,0,0,0,1.9-2.92c-.36-1.16-1.94-2.11-3-1.58" transform="translate(-30.4 -30.4)"/></g><g class="cls-12"><path class="cls-5" d="M317.8,468.48l.34-4.88,57.78,3.95s2.65,1.26,2.28,3.15Z" transform="translate(-30.4 -30.4)"/></g><path class="cls-6" d="M348.22,451.91c0,.3-1.5.38-3,1.27s-2.31,2.11-2.58,2,.24-1.81,2.06-2.86S348.3,451.65,348.22,451.91Z" transform="translate(-30.4 -30.4)"/><path class="cls-6" d="M354.46,454.77c.06.28-1.24.74-2.28,2s-1.39,2.52-1.68,2.5-.42-1.7.91-3.18S354.47,454.48,354.46,454.77Z" transform="translate(-30.4 -30.4)"/><path class="cls-6" d="M357.78,462.48c-.27,0-.63-1.44.19-3s2.22-2.18,2.34-1.93-.77,1.08-1.42,2.39S358.08,462.46,357.78,462.48Z" transform="translate(-30.4 -30.4)"/><path class="cls-6" d="M348,444.78c-.13.26-1.47-.2-3.14-.14s-3,.53-3.14.27,1.15-1.27,3.12-1.3S348.1,444.55,348,444.78Z" transform="translate(-30.4 -30.4)"/><path class="cls-6" d="M346.77,437.56c0,.12-1.17.26-3-.13a14.07,14.07,0,0,1-4.83-2.07,3.85,3.85,0,0,1-.89-.75A1.28,1.28,0,0,1,338,433a1.6,1.6,0,0,1,1.32-.63,4,4,0,0,1,1.13.2,11.39,11.39,0,0,1,1.86.71,10.87,10.87,0,0,1,2.72,1.94c1.35,1.34,1.79,2.46,1.69,2.52s-.79-.86-2.18-2a11.84,11.84,0,0,0-2.64-1.62,10.87,10.87,0,0,0-1.72-.6c-.63-.19-1.17-.22-1.35.06-.06.11-.07.15.06.34a2.91,2.91,0,0,0,.65.55,15.81,15.81,0,0,0,1.56,1,17.53,17.53,0,0,0,2.89,1.23C345.65,437.27,346.79,437.4,346.77,437.56Z" transform="translate(-30.4 -30.4)"/><path class="cls-6" d="M346.37,438c-.1.05-.65-1-.69-2.95a9.93,9.93,0,0,1,.54-3.29,9.77,9.77,0,0,1,.84-1.81,2.49,2.49,0,0,1,2-1.46,1.41,1.41,0,0,1,1.23.89,3.7,3.7,0,0,1,.27,1.12,6.58,6.58,0,0,1-.07,2,6.94,6.94,0,0,1-1.41,3.08c-1.23,1.52-2.48,1.83-2.5,1.73s1-.69,1.92-2.16a7,7,0,0,0,1.06-2.81,6.4,6.4,0,0,0,0-1.75c-.08-.64-.3-1.17-.54-1.11s-.83.45-1.09.95a10.12,10.12,0,0,0-.81,1.61,10.72,10.72,0,0,0-.7,3C346.26,436.81,346.54,437.93,346.37,438Z" transform="translate(-30.4 -30.4)"/><path class="cls-6" d="M200.88,266.71s.09.09.21.3a6.25,6.25,0,0,1,.5.94,8.76,8.76,0,0,1,.73,3.84,13,13,0,0,1-1.62,5.56,27.6,27.6,0,0,1-4.18,5.72,40.66,40.66,0,0,1-10,8,37.66,37.66,0,0,1-3.49,1.71,7,7,0,0,1-1.34.48,8.29,8.29,0,0,1,1.25-.67c.82-.4,2-1,3.39-1.84a43.36,43.36,0,0,0,9.78-8.07,28.18,28.18,0,0,0,4.15-5.58,13,13,0,0,0,1.67-5.36,9.33,9.33,0,0,0-.55-3.74C201.08,267.18,200.84,266.73,200.88,266.71Z" transform="translate(-30.4 -30.4)"/><path class="cls-6" d="M200,274.39a1.58,1.58,0,0,1-.42.23,9.25,9.25,0,0,1-1.24.53,15.3,15.3,0,0,1-4.9.88,19,19,0,0,1-14.63-6.53,32.91,32.91,0,0,1-2.75-3.81,27.41,27.41,0,0,1-1.93-3.93,21.16,21.16,0,0,1-1.46-7.24,17,17,0,0,1,.66-4.93,11.22,11.22,0,0,1,.44-1.28c.11-.29.18-.44.2-.43s-.17.63-.44,1.76a18.2,18.2,0,0,0-.49,4.87,21.48,21.48,0,0,0,1.54,7.08,26.87,26.87,0,0,0,1.92,3.83,32.14,32.14,0,0,0,2.71,3.74,18.4,18.4,0,0,0,7.14,5.11,18.78,18.78,0,0,0,7.08,1.39,16.54,16.54,0,0,0,4.84-.7C199.41,274.61,200,274.35,200,274.39Z" transform="translate(-30.4 -30.4)"/><path class="cls-6" d="M310.8,282.8a3.93,3.93,0,0,1-.87-.59c-.54-.41-1.31-1-2.26-1.78-1.88-1.54-4.54-3.57-7.22-6.16a21.46,21.46,0,0,1-1.82-2,6.36,6.36,0,0,1-1.14-2.32,16.37,16.37,0,0,1-.47-4.28,21.15,21.15,0,0,1,.21-2.88,3.77,3.77,0,0,1,.24-1c.08,0-.15,1.5-.08,3.91a17,17,0,0,0,.56,4.15c.36,1.53,1.59,2.81,2.87,4.12,2.64,2.55,5.28,4.64,7.08,6.24.92.8,1.65,1.45,2.16,1.91A3.84,3.84,0,0,1,310.8,282.8Z" transform="translate(-30.4 -30.4)"/><path class="cls-6" d="M319.52,239.68a6.49,6.49,0,0,1,.22,1.41,24.24,24.24,0,0,1,0,3.9,23.26,23.26,0,0,1-4.3,12c-3.1,3.93-6,7.49-8.45,9.66a34.49,34.49,0,0,1-3,2.44,6.11,6.11,0,0,1-1.21.76,8.09,8.09,0,0,1,1.09-.92c.71-.58,1.73-1.43,2.91-2.55a89.83,89.83,0,0,0,8.28-9.71A23.76,23.76,0,0,0,319.4,245,50.1,50.1,0,0,0,319.52,239.68Z" transform="translate(-30.4 -30.4)"/><path class="cls-6" d="M327.2,248.49a15.15,15.15,0,0,0,.39-3.6,11.9,11.9,0,0,0-.85-3.8,11.37,11.37,0,0,0-2.66-3.93,15.5,15.5,0,0,0-7.77-3.69,19.5,19.5,0,0,0-3.64,0,3.47,3.47,0,0,1,1-.27,9.77,9.77,0,0,1,2.72-.1,15,15,0,0,1,8.09,3.68,11.56,11.56,0,0,1,3.52,8.1,9.55,9.55,0,0,1-.37,2.69A3,3,0,0,1,327.2,248.49Z" transform="translate(-30.4 -30.4)"/><path class="cls-6" d="M214.93,310.75s-22.44-19.9-32.28-19.73-42.15-2-28.6,42.77c13.66,45.12,38.1,114.11,38.77,111.64l42.08-18.5-17.1-64.18s57.36.65,68.43-.81,31.8-16,31.8-16L314.74,427l44-2.45s6.17-97.41,8-117.43c1.55-17.44-18-37-38-32.58-13,2.88-59.69,35.8-59.69,35.8Z" transform="translate(-30.4 -30.4)"/><path class="cls-7" d="M319.54,302.78a11.91,11.91,0,0,1-.05,2.13c-.08,1.5-.18,3.44-.3,5.77-.22,4.87-.38,11.61-.5,19.07s-.26,14.2-.52,19.08c-.11,2.45-.26,4.42-.39,5.78a11.72,11.72,0,0,1-.28,2.11,12.06,12.06,0,0,1,0-2.13c0-1.5.1-3.44.16-5.78.08-5,.19-11.69.3-19.08s.36-14.2.72-19.08c.18-2.44.36-4.41.53-5.77A11.77,11.77,0,0,1,319.54,302.78Z" transform="translate(-30.4 -30.4)"/><path class="cls-7" d="M317.76,340.75a8.54,8.54,0,0,1-1.94-2.34,25.68,25.68,0,0,1-3.15-6.63,26.38,26.38,0,0,1-1.18-7.25,8.78,8.78,0,0,1,.27-3c.24,0-.1,4.66,1.62,10.06S318,340.62,317.76,340.75Z" transform="translate(-30.4 -30.4)"/><path class="cls-7" d="M257.92,357.18c-.07,0-.17-1.1-.51-3.09a39.69,39.69,0,0,0-2.3-8.16,41.84,41.84,0,0,0-6.36-10.8A40.21,40.21,0,0,0,237,325.36c-9.54-5.52-17.93-10.94-23.79-15.18-2.93-2.11-5.23-3.92-6.76-5.25-.77-.65-1.34-1.2-1.72-1.56s-.58-.57-.56-.59.88.68,2.47,1.93,3.91,3,6.87,5.05c5.92,4.11,14.34,9.45,23.86,15a39.77,39.77,0,0,1,11.93,10,40.93,40.93,0,0,1,6.31,11,36.33,36.33,0,0,1,2.11,8.31,22.91,22.91,0,0,1,.21,2.32A3.83,3.83,0,0,1,257.92,357.18Z" transform="translate(-30.4 -30.4)"/><path class="cls-7" d="M273.44,309.67a11,11,0,0,1-.73,1.88c-.53,1.18-1.24,2.92-2,5.08A91.28,91.28,0,0,0,264.84,352c.07,2.31.19,4.18.31,5.47a9.57,9.57,0,0,1,.08,2,10.48,10.48,0,0,1-.37-2c-.21-1.28-.4-3.15-.55-5.47a82.28,82.28,0,0,1,5.86-35.56c.88-2.15,1.67-3.86,2.28-5A10.23,10.23,0,0,1,273.44,309.67Z" transform="translate(-30.4 -30.4)"/><path class="cls-7" d="M189.07,303.84a3.16,3.16,0,0,1,.61.4l1.69,1.22c.36.28.77.58,1.21.9s.86.77,1.34,1.2a31.56,31.56,0,0,1,3.12,3.06l1.71,1.89c.54.7,1.08,1.44,1.66,2.2l.87,1.17c.28.41.54.84.81,1.27.53.86,1.11,1.73,1.65,2.66a81.64,81.64,0,0,1,5.64,12.74c1.66,4.66,2.92,9.2,4,13.32l2.93,11c.85,3.12,1.54,5.64,2.06,7.37.24.83.42,1.5.57,2a3.6,3.6,0,0,1,.16.71,3.47,3.47,0,0,1-.26-.68l-.66-2c-.58-1.71-1.33-4.22-2.23-7.33s-1.89-6.84-3-10.94-2.41-8.64-4.07-13.28a82.63,82.63,0,0,0-5.57-12.67c-.52-.93-1.09-1.79-1.62-2.66-.26-.42-.51-.85-.79-1.26l-.85-1.16c-.56-.76-1.09-1.51-1.63-2.2l-1.66-1.9a33.42,33.42,0,0,0-3.05-3.1c-.47-.43-.88-.87-1.3-1.22l-1.18-.93-1.62-1.3A4.31,4.31,0,0,1,189.07,303.84Z" transform="translate(-30.4 -30.4)"/><path class="cls-8" d="M214.47,310.34c8,5.29,16.82,6.53,26.24,8.33,5.44,1,11.13,2,16.43.42,11.38-3.36,22.38-16.31,29.69-20.93l-22.66-7.06Z" transform="translate(-30.4 -30.4)"/><path class="cls-5" d="M230.61,315.6a30.72,30.72,0,0,1,1.9-5.36,31.15,31.15,0,0,1,2.39-5.17,31.32,31.32,0,0,1-1.91,5.36A31.64,31.64,0,0,1,230.61,315.6Z" transform="translate(-30.4 -30.4)"/><path class="cls-5" d="M260.65,313.65a19.24,19.24,0,0,1-4.24-1.48,18.66,18.66,0,0,1-4-2,39.73,39.73,0,0,1,8.27,3.45Z" transform="translate(-30.4 -30.4)"/><path class="cls-5" d="M268.4,299.74a23.58,23.58,0,0,1-5,.19,24.68,24.68,0,0,1-5-.33,23.58,23.58,0,0,1,5-.19A24.68,24.68,0,0,1,268.4,299.74Z" transform="translate(-30.4 -30.4)"/></g></svg>